<?xml version="1.0" encoding="utf-8" standalone="no"?>
<!DOCTYPE svg PUBLIC "-//W3C//DTD SVG 1.1//EN"
  "http://www.w3.org/Graphics/SVG/1.1/DTD/svg11.dtd">
<svg xmlns:xlink="http://www.w3.org/1999/xlink" width="576pt" height="360pt" viewBox="0 0 576 360" xmlns="http://www.w3.org/2000/svg" version="1.1">
 <metadata>
  <rdf:RDF xmlns:dc="http://purl.org/dc/elements/1.1/" xmlns:cc="http://creativecommons.org/ns#" xmlns:rdf="http://www.w3.org/1999/02/22-rdf-syntax-ns#">
   <cc:Work>
    <dc:type rdf:resource="http://purl.org/dc/dcmitype/StillImage"/>
    <dc:date>2025-04-13T23:35:31.583292</dc:date>
    <dc:format>image/svg+xml</dc:format>
    <dc:creator>
     <cc:Agent>
      <dc:title>Matplotlib v3.10.0, https://matplotlib.org/</dc:title>
     </cc:Agent>
    </dc:creator>
   </cc:Work>
  </rdf:RDF>
 </metadata>
 <defs>
  <style type="text/css">*{stroke-linejoin: round; stroke-linecap: butt}</style>
 </defs>
 <g id="figure_1">
  <g id="patch_1">
   <path d="M 0 360 
L 576 360 
L 576 0 
L 0 0 
z
" style="fill: #ffffff"/>
  </g>
  <g id="axes_1">
   <g id="patch_2">
    <path d="M 46.11 320.82 
L 554.084676 320.82 
L 554.084676 40.88 
L 46.11 40.88 
z
" style="fill: #ffffff"/>
   </g>
   <g id="matplotlib.axis_1">
    <g id="xtick_1">
     <g id="line2d_1">
      <path d="M 147.328733 320.82 
L 147.328733 40.88 
" clip-path="url(#ped5c590ae9)" style="fill: none; stroke-dasharray: 2.96,1.28; stroke-dashoffset: 0; stroke: #cccccc; stroke-opacity: 0.6; stroke-width: 0.8"/>
     </g>
     <g id="line2d_2"/>
     <g id="text_1">
      <!-- 200 -->
      <g style="fill: #262626" transform="translate(138.987327 331.477813) scale(0.1 -0.1)">
       <defs>
        <path id="ArialMT-32" d="M 3222 541 
L 3222 0 
L 194 0 
Q 188 203 259 391 
Q 375 700 629 1000 
Q 884 1300 1366 1694 
Q 2113 2306 2375 2664 
Q 2638 3022 2638 3341 
Q 2638 3675 2398 3904 
Q 2159 4134 1775 4134 
Q 1369 4134 1125 3890 
Q 881 3647 878 3216 
L 300 3275 
Q 359 3922 746 4261 
Q 1134 4600 1788 4600 
Q 2447 4600 2831 4234 
Q 3216 3869 3216 3328 
Q 3216 3053 3103 2787 
Q 2991 2522 2730 2228 
Q 2469 1934 1863 1422 
Q 1356 997 1212 845 
Q 1069 694 975 541 
L 3222 541 
z
" transform="scale(0.015625)"/>
        <path id="ArialMT-30" d="M 266 2259 
Q 266 3072 433 3567 
Q 600 4063 929 4331 
Q 1259 4600 1759 4600 
Q 2128 4600 2406 4451 
Q 2684 4303 2865 4023 
Q 3047 3744 3150 3342 
Q 3253 2941 3253 2259 
Q 3253 1453 3087 958 
Q 2922 463 2592 192 
Q 2263 -78 1759 -78 
Q 1097 -78 719 397 
Q 266 969 266 2259 
z
M 844 2259 
Q 844 1131 1108 757 
Q 1372 384 1759 384 
Q 2147 384 2411 759 
Q 2675 1134 2675 2259 
Q 2675 3391 2411 3762 
Q 2147 4134 1753 4134 
Q 1366 4134 1134 3806 
Q 844 3388 844 2259 
z
" transform="scale(0.015625)"/>
       </defs>
       <use xlink:href="#ArialMT-32"/>
       <use xlink:href="#ArialMT-30" transform="translate(55.615234 0)"/>
       <use xlink:href="#ArialMT-30" transform="translate(111.230469 0)"/>
      </g>
     </g>
    </g>
    <g id="xtick_2">
     <g id="line2d_3">
      <path d="M 249.005009 320.82 
L 249.005009 40.88 
" clip-path="url(#ped5c590ae9)" style="fill: none; stroke-dasharray: 2.96,1.28; stroke-dashoffset: 0; stroke: #cccccc; stroke-opacity: 0.6; stroke-width: 0.8"/>
     </g>
     <g id="line2d_4"/>
     <g id="text_2">
      <!-- 400 -->
      <g style="fill: #262626" transform="translate(240.663603 331.477813) scale(0.1 -0.1)">
       <defs>
        <path id="ArialMT-34" d="M 2069 0 
L 2069 1097 
L 81 1097 
L 81 1613 
L 2172 4581 
L 2631 4581 
L 2631 1613 
L 3250 1613 
L 3250 1097 
L 2631 1097 
L 2631 0 
L 2069 0 
z
M 2069 1613 
L 2069 3678 
L 634 1613 
L 2069 1613 
z
" transform="scale(0.015625)"/>
       </defs>
       <use xlink:href="#ArialMT-34"/>
       <use xlink:href="#ArialMT-30" transform="translate(55.615234 0)"/>
       <use xlink:href="#ArialMT-30" transform="translate(111.230469 0)"/>
      </g>
     </g>
    </g>
    <g id="xtick_3">
     <g id="line2d_5">
      <path d="M 350.681285 320.82 
L 350.681285 40.88 
" clip-path="url(#ped5c590ae9)" style="fill: none; stroke-dasharray: 2.96,1.28; stroke-dashoffset: 0; stroke: #cccccc; stroke-opacity: 0.6; stroke-width: 0.8"/>
     </g>
     <g id="line2d_6"/>
     <g id="text_3">
      <!-- 600 -->
      <g style="fill: #262626" transform="translate(342.339879 331.477813) scale(0.1 -0.1)">
       <defs>
        <path id="ArialMT-36" d="M 3184 3459 
L 2625 3416 
Q 2550 3747 2413 3897 
Q 2184 4138 1850 4138 
Q 1581 4138 1378 3988 
Q 1113 3794 959 3422 
Q 806 3050 800 2363 
Q 1003 2672 1297 2822 
Q 1591 2972 1913 2972 
Q 2475 2972 2870 2558 
Q 3266 2144 3266 1488 
Q 3266 1056 3080 686 
Q 2894 316 2569 119 
Q 2244 -78 1831 -78 
Q 1128 -78 684 439 
Q 241 956 241 2144 
Q 241 3472 731 4075 
Q 1159 4600 1884 4600 
Q 2425 4600 2770 4297 
Q 3116 3994 3184 3459 
z
M 888 1484 
Q 888 1194 1011 928 
Q 1134 663 1356 523 
Q 1578 384 1822 384 
Q 2178 384 2434 671 
Q 2691 959 2691 1453 
Q 2691 1928 2437 2201 
Q 2184 2475 1800 2475 
Q 1419 2475 1153 2201 
Q 888 1928 888 1484 
z
" transform="scale(0.015625)"/>
       </defs>
       <use xlink:href="#ArialMT-36"/>
       <use xlink:href="#ArialMT-30" transform="translate(55.615234 0)"/>
       <use xlink:href="#ArialMT-30" transform="translate(111.230469 0)"/>
      </g>
     </g>
    </g>
    <g id="xtick_4">
     <g id="line2d_7">
      <path d="M 452.357561 320.82 
L 452.357561 40.88 
" clip-path="url(#ped5c590ae9)" style="fill: none; stroke-dasharray: 2.96,1.28; stroke-dashoffset: 0; stroke: #cccccc; stroke-opacity: 0.6; stroke-width: 0.8"/>
     </g>
     <g id="line2d_8"/>
     <g id="text_4">
      <!-- 800 -->
      <g style="fill: #262626" transform="translate(444.016155 331.477813) scale(0.1 -0.1)">
       <defs>
        <path id="ArialMT-38" d="M 1131 2484 
Q 781 2613 612 2850 
Q 444 3088 444 3419 
Q 444 3919 803 4259 
Q 1163 4600 1759 4600 
Q 2359 4600 2725 4251 
Q 3091 3903 3091 3403 
Q 3091 3084 2923 2848 
Q 2756 2613 2416 2484 
Q 2838 2347 3058 2040 
Q 3278 1734 3278 1309 
Q 3278 722 2862 322 
Q 2447 -78 1769 -78 
Q 1091 -78 675 323 
Q 259 725 259 1325 
Q 259 1772 486 2073 
Q 713 2375 1131 2484 
z
M 1019 3438 
Q 1019 3113 1228 2906 
Q 1438 2700 1772 2700 
Q 2097 2700 2305 2904 
Q 2513 3109 2513 3406 
Q 2513 3716 2298 3927 
Q 2084 4138 1766 4138 
Q 1444 4138 1231 3931 
Q 1019 3725 1019 3438 
z
M 838 1322 
Q 838 1081 952 856 
Q 1066 631 1291 507 
Q 1516 384 1775 384 
Q 2178 384 2440 643 
Q 2703 903 2703 1303 
Q 2703 1709 2433 1975 
Q 2163 2241 1756 2241 
Q 1359 2241 1098 1978 
Q 838 1716 838 1322 
z
" transform="scale(0.015625)"/>
       </defs>
       <use xlink:href="#ArialMT-38"/>
       <use xlink:href="#ArialMT-30" transform="translate(55.615234 0)"/>
       <use xlink:href="#ArialMT-30" transform="translate(111.230469 0)"/>
      </g>
     </g>
    </g>
    <g id="xtick_5">
     <g id="line2d_9">
      <path d="M 554.033838 320.82 
L 554.033838 40.88 
" clip-path="url(#ped5c590ae9)" style="fill: none; stroke-dasharray: 2.96,1.28; stroke-dashoffset: 0; stroke: #cccccc; stroke-opacity: 0.6; stroke-width: 0.8"/>
     </g>
     <g id="line2d_10"/>
     <g id="text_5">
      <!-- 1000 -->
      <g style="fill: #262626" transform="translate(542.911963 331.477813) scale(0.1 -0.1)">
       <defs>
        <path id="ArialMT-31" d="M 2384 0 
L 1822 0 
L 1822 3584 
Q 1619 3391 1289 3197 
Q 959 3003 697 2906 
L 697 3450 
Q 1169 3672 1522 3987 
Q 1875 4303 2022 4600 
L 2384 4600 
L 2384 0 
z
" transform="scale(0.015625)"/>
       </defs>
       <use xlink:href="#ArialMT-31"/>
       <use xlink:href="#ArialMT-30" transform="translate(55.615234 0)"/>
       <use xlink:href="#ArialMT-30" transform="translate(111.230469 0)"/>
       <use xlink:href="#ArialMT-30" transform="translate(166.845703 0)"/>
      </g>
     </g>
    </g>
    <g id="text_6">
     <!-- Episode -->
     <g style="fill: #262626" transform="translate(278.415775 346.054688) scale(0.12 -0.12)">
      <defs>
       <path id="ArialMT-45" d="M 506 0 
L 506 4581 
L 3819 4581 
L 3819 4041 
L 1113 4041 
L 1113 2638 
L 3647 2638 
L 3647 2100 
L 1113 2100 
L 1113 541 
L 3925 541 
L 3925 0 
L 506 0 
z
" transform="scale(0.015625)"/>
       <path id="ArialMT-70" d="M 422 -1272 
L 422 3319 
L 934 3319 
L 934 2888 
Q 1116 3141 1344 3267 
Q 1572 3394 1897 3394 
Q 2322 3394 2647 3175 
Q 2972 2956 3137 2557 
Q 3303 2159 3303 1684 
Q 3303 1175 3120 767 
Q 2938 359 2589 142 
Q 2241 -75 1856 -75 
Q 1575 -75 1351 44 
Q 1128 163 984 344 
L 984 -1272 
L 422 -1272 
z
M 931 1641 
Q 931 1000 1190 694 
Q 1450 388 1819 388 
Q 2194 388 2461 705 
Q 2728 1022 2728 1688 
Q 2728 2322 2467 2637 
Q 2206 2953 1844 2953 
Q 1484 2953 1207 2617 
Q 931 2281 931 1641 
z
" transform="scale(0.015625)"/>
       <path id="ArialMT-69" d="M 425 3934 
L 425 4581 
L 988 4581 
L 988 3934 
L 425 3934 
z
M 425 0 
L 425 3319 
L 988 3319 
L 988 0 
L 425 0 
z
" transform="scale(0.015625)"/>
       <path id="ArialMT-73" d="M 197 991 
L 753 1078 
Q 800 744 1014 566 
Q 1228 388 1613 388 
Q 2000 388 2187 545 
Q 2375 703 2375 916 
Q 2375 1106 2209 1216 
Q 2094 1291 1634 1406 
Q 1016 1563 777 1677 
Q 538 1791 414 1992 
Q 291 2194 291 2438 
Q 291 2659 392 2848 
Q 494 3038 669 3163 
Q 800 3259 1026 3326 
Q 1253 3394 1513 3394 
Q 1903 3394 2198 3281 
Q 2494 3169 2634 2976 
Q 2775 2784 2828 2463 
L 2278 2388 
Q 2241 2644 2061 2787 
Q 1881 2931 1553 2931 
Q 1166 2931 1000 2803 
Q 834 2675 834 2503 
Q 834 2394 903 2306 
Q 972 2216 1119 2156 
Q 1203 2125 1616 2013 
Q 2213 1853 2448 1751 
Q 2684 1650 2818 1456 
Q 2953 1263 2953 975 
Q 2953 694 2789 445 
Q 2625 197 2315 61 
Q 2006 -75 1616 -75 
Q 969 -75 630 194 
Q 291 463 197 991 
z
" transform="scale(0.015625)"/>
       <path id="ArialMT-6f" d="M 213 1659 
Q 213 2581 725 3025 
Q 1153 3394 1769 3394 
Q 2453 3394 2887 2945 
Q 3322 2497 3322 1706 
Q 3322 1066 3130 698 
Q 2938 331 2570 128 
Q 2203 -75 1769 -75 
Q 1072 -75 642 372 
Q 213 819 213 1659 
z
M 791 1659 
Q 791 1022 1069 705 
Q 1347 388 1769 388 
Q 2188 388 2466 706 
Q 2744 1025 2744 1678 
Q 2744 2294 2464 2611 
Q 2184 2928 1769 2928 
Q 1347 2928 1069 2612 
Q 791 2297 791 1659 
z
" transform="scale(0.015625)"/>
       <path id="ArialMT-64" d="M 2575 0 
L 2575 419 
Q 2259 -75 1647 -75 
Q 1250 -75 917 144 
Q 584 363 401 755 
Q 219 1147 219 1656 
Q 219 2153 384 2558 
Q 550 2963 881 3178 
Q 1213 3394 1622 3394 
Q 1922 3394 2156 3267 
Q 2391 3141 2538 2938 
L 2538 4581 
L 3097 4581 
L 3097 0 
L 2575 0 
z
M 797 1656 
Q 797 1019 1065 703 
Q 1334 388 1700 388 
Q 2069 388 2326 689 
Q 2584 991 2584 1609 
Q 2584 2291 2321 2609 
Q 2059 2928 1675 2928 
Q 1300 2928 1048 2622 
Q 797 2316 797 1656 
z
" transform="scale(0.015625)"/>
       <path id="ArialMT-65" d="M 2694 1069 
L 3275 997 
Q 3138 488 2766 206 
Q 2394 -75 1816 -75 
Q 1088 -75 661 373 
Q 234 822 234 1631 
Q 234 2469 665 2931 
Q 1097 3394 1784 3394 
Q 2450 3394 2872 2941 
Q 3294 2488 3294 1666 
Q 3294 1616 3291 1516 
L 816 1516 
Q 847 969 1125 678 
Q 1403 388 1819 388 
Q 2128 388 2347 550 
Q 2566 713 2694 1069 
z
M 847 1978 
L 2700 1978 
Q 2663 2397 2488 2606 
Q 2219 2931 1791 2931 
Q 1403 2931 1139 2672 
Q 875 2413 847 1978 
z
" transform="scale(0.015625)"/>
      </defs>
      <use xlink:href="#ArialMT-45"/>
      <use xlink:href="#ArialMT-70" transform="translate(66.699219 0)"/>
      <use xlink:href="#ArialMT-69" transform="translate(122.314453 0)"/>
      <use xlink:href="#ArialMT-73" transform="translate(144.53125 0)"/>
      <use xlink:href="#ArialMT-6f" transform="translate(194.53125 0)"/>
      <use xlink:href="#ArialMT-64" transform="translate(250.146484 0)"/>
      <use xlink:href="#ArialMT-65" transform="translate(305.761719 0)"/>
     </g>
    </g>
   </g>
   <g id="matplotlib.axis_2">
    <g id="ytick_1">
     <g id="line2d_11">
      <path d="M 46.11 314.151921 
L 554.084676 314.151921 
" clip-path="url(#ped5c590ae9)" style="fill: none; stroke-dasharray: 2.96,1.28; stroke-dashoffset: 0; stroke: #cccccc; stroke-opacity: 0.6; stroke-width: 0.8"/>
     </g>
     <g id="line2d_12"/>
     <g id="text_7">
      <!-- −60 -->
      <g style="fill: #262626" transform="translate(25.6475 317.730828) scale(0.1 -0.1)">
       <defs>
        <path id="ArialMT-2212" d="M 3381 1997 
L 356 1997 
L 356 2522 
L 3381 2522 
L 3381 1997 
z
" transform="scale(0.015625)"/>
       </defs>
       <use xlink:href="#ArialMT-2212"/>
       <use xlink:href="#ArialMT-36" transform="translate(58.398438 0)"/>
       <use xlink:href="#ArialMT-30" transform="translate(114.013672 0)"/>
      </g>
     </g>
    </g>
    <g id="ytick_2">
     <g id="line2d_13">
      <path d="M 46.11 268.396506 
L 554.084676 268.396506 
" clip-path="url(#ped5c590ae9)" style="fill: none; stroke-dasharray: 2.96,1.28; stroke-dashoffset: 0; stroke: #cccccc; stroke-opacity: 0.6; stroke-width: 0.8"/>
     </g>
     <g id="line2d_14"/>
     <g id="text_8">
      <!-- −40 -->
      <g style="fill: #262626" transform="translate(25.6475 271.975412) scale(0.1 -0.1)">
       <use xlink:href="#ArialMT-2212"/>
       <use xlink:href="#ArialMT-34" transform="translate(58.398438 0)"/>
       <use xlink:href="#ArialMT-30" transform="translate(114.013672 0)"/>
      </g>
     </g>
    </g>
    <g id="ytick_3">
     <g id="line2d_15">
      <path d="M 46.11 222.641091 
L 554.084676 222.641091 
" clip-path="url(#ped5c590ae9)" style="fill: none; stroke-dasharray: 2.96,1.28; stroke-dashoffset: 0; stroke: #cccccc; stroke-opacity: 0.6; stroke-width: 0.8"/>
     </g>
     <g id="line2d_16"/>
     <g id="text_9">
      <!-- −20 -->
      <g style="fill: #262626" transform="translate(25.6475 226.219997) scale(0.1 -0.1)">
       <use xlink:href="#ArialMT-2212"/>
       <use xlink:href="#ArialMT-32" transform="translate(58.398438 0)"/>
       <use xlink:href="#ArialMT-30" transform="translate(114.013672 0)"/>
      </g>
     </g>
    </g>
    <g id="ytick_4">
     <g id="line2d_17">
      <path d="M 46.11 176.885675 
L 554.084676 176.885675 
" clip-path="url(#ped5c590ae9)" style="fill: none; stroke-dasharray: 2.96,1.28; stroke-dashoffset: 0; stroke: #cccccc; stroke-opacity: 0.6; stroke-width: 0.8"/>
     </g>
     <g id="line2d_18"/>
     <g id="text_10">
      <!-- 0 -->
      <g style="fill: #262626" transform="translate(37.049063 180.464582) scale(0.1 -0.1)">
       <use xlink:href="#ArialMT-30"/>
      </g>
     </g>
    </g>
    <g id="ytick_5">
     <g id="line2d_19">
      <path d="M 46.11 131.13026 
L 554.084676 131.13026 
" clip-path="url(#ped5c590ae9)" style="fill: none; stroke-dasharray: 2.96,1.28; stroke-dashoffset: 0; stroke: #cccccc; stroke-opacity: 0.6; stroke-width: 0.8"/>
     </g>
     <g id="line2d_20"/>
     <g id="text_11">
      <!-- 20 -->
      <g style="fill: #262626" transform="translate(31.488125 134.709166) scale(0.1 -0.1)">
       <use xlink:href="#ArialMT-32"/>
       <use xlink:href="#ArialMT-30" transform="translate(55.615234 0)"/>
      </g>
     </g>
    </g>
    <g id="ytick_6">
     <g id="line2d_21">
      <path d="M 46.11 85.374845 
L 554.084676 85.374845 
" clip-path="url(#ped5c590ae9)" style="fill: none; stroke-dasharray: 2.96,1.28; stroke-dashoffset: 0; stroke: #cccccc; stroke-opacity: 0.6; stroke-width: 0.8"/>
     </g>
     <g id="line2d_22"/>
     <g id="text_12">
      <!-- 40 -->
      <g style="fill: #262626" transform="translate(31.488125 88.953751) scale(0.1 -0.1)">
       <use xlink:href="#ArialMT-34"/>
       <use xlink:href="#ArialMT-30" transform="translate(55.615234 0)"/>
      </g>
     </g>
    </g>
    <g id="text_13">
     <!-- Reward -->
     <g style="fill: #262626" transform="translate(19.2625 201.52375) rotate(-90) scale(0.12 -0.12)">
      <defs>
       <path id="ArialMT-52" d="M 503 0 
L 503 4581 
L 2534 4581 
Q 3147 4581 3465 4457 
Q 3784 4334 3975 4021 
Q 4166 3709 4166 3331 
Q 4166 2844 3850 2509 
Q 3534 2175 2875 2084 
Q 3116 1969 3241 1856 
Q 3506 1613 3744 1247 
L 4541 0 
L 3778 0 
L 3172 953 
Q 2906 1366 2734 1584 
Q 2563 1803 2427 1890 
Q 2291 1978 2150 2013 
Q 2047 2034 1813 2034 
L 1109 2034 
L 1109 0 
L 503 0 
z
M 1109 2559 
L 2413 2559 
Q 2828 2559 3062 2645 
Q 3297 2731 3419 2920 
Q 3541 3109 3541 3331 
Q 3541 3656 3305 3865 
Q 3069 4075 2559 4075 
L 1109 4075 
L 1109 2559 
z
" transform="scale(0.015625)"/>
       <path id="ArialMT-77" d="M 1034 0 
L 19 3319 
L 600 3319 
L 1128 1403 
L 1325 691 
Q 1338 744 1497 1375 
L 2025 3319 
L 2603 3319 
L 3100 1394 
L 3266 759 
L 3456 1400 
L 4025 3319 
L 4572 3319 
L 3534 0 
L 2950 0 
L 2422 1988 
L 2294 2553 
L 1622 0 
L 1034 0 
z
" transform="scale(0.015625)"/>
       <path id="ArialMT-61" d="M 2588 409 
Q 2275 144 1986 34 
Q 1697 -75 1366 -75 
Q 819 -75 525 192 
Q 231 459 231 875 
Q 231 1119 342 1320 
Q 453 1522 633 1644 
Q 813 1766 1038 1828 
Q 1203 1872 1538 1913 
Q 2219 1994 2541 2106 
Q 2544 2222 2544 2253 
Q 2544 2597 2384 2738 
Q 2169 2928 1744 2928 
Q 1347 2928 1158 2789 
Q 969 2650 878 2297 
L 328 2372 
Q 403 2725 575 2942 
Q 747 3159 1072 3276 
Q 1397 3394 1825 3394 
Q 2250 3394 2515 3294 
Q 2781 3194 2906 3042 
Q 3031 2891 3081 2659 
Q 3109 2516 3109 2141 
L 3109 1391 
Q 3109 606 3145 398 
Q 3181 191 3288 0 
L 2700 0 
Q 2613 175 2588 409 
z
M 2541 1666 
Q 2234 1541 1622 1453 
Q 1275 1403 1131 1340 
Q 988 1278 909 1158 
Q 831 1038 831 891 
Q 831 666 1001 516 
Q 1172 366 1500 366 
Q 1825 366 2078 508 
Q 2331 650 2450 897 
Q 2541 1088 2541 1459 
L 2541 1666 
z
" transform="scale(0.015625)"/>
       <path id="ArialMT-72" d="M 416 0 
L 416 3319 
L 922 3319 
L 922 2816 
Q 1116 3169 1280 3281 
Q 1444 3394 1641 3394 
Q 1925 3394 2219 3213 
L 2025 2691 
Q 1819 2813 1613 2813 
Q 1428 2813 1281 2702 
Q 1134 2591 1072 2394 
Q 978 2094 978 1738 
L 978 0 
L 416 0 
z
" transform="scale(0.015625)"/>
      </defs>
      <use xlink:href="#ArialMT-52"/>
      <use xlink:href="#ArialMT-65" transform="translate(72.216797 0)"/>
      <use xlink:href="#ArialMT-77" transform="translate(127.832031 0)"/>
      <use xlink:href="#ArialMT-61" transform="translate(200.048828 0)"/>
      <use xlink:href="#ArialMT-72" transform="translate(255.664062 0)"/>
      <use xlink:href="#ArialMT-64" transform="translate(288.964844 0)"/>
     </g>
    </g>
   </g>
   <g id="line2d_23">
    <path d="M 46.160838 178.925495 
L 48.194364 185.478612 
L 48.702745 187.153429 
L 49.211126 189.544501 
L 49.719508 190.893515 
L 50.736271 195.222783 
L 51.753033 198.01444 
L 52.769796 201.993352 
L 53.278177 203.497758 
L 53.786559 204.634614 
L 54.29494 206.358444 
L 55.311703 208.842109 
L 56.328466 213.14035 
L 57.85361 218.159458 
L 58.870373 223.088833 
L 59.378754 224.862238 
L 59.887135 227.577779 
L 61.920661 233.425657 
L 63.954186 241.21074 
L 64.462568 242.666699 
L 64.970949 245.204747 
L 66.496093 251.111891 
L 67.004475 253.57575 
L 68.529619 258.15946 
L 69.546382 261.69366 
L 70.054763 263.085362 
L 70.563144 265.223191 
L 71.071526 266.66688 
L 72.088289 267.201785 
L 72.59667 267.062805 
L 74.121814 267.292748 
L 74.630195 267.019466 
L 75.138577 267.829643 
L 75.646958 267.132029 
L 76.15534 267.160828 
L 76.663721 267.788206 
L 77.680484 268.59305 
L 78.188865 268.560847 
L 79.205628 269.880628 
L 79.714009 269.999588 
L 80.222391 270.547348 
L 80.730772 271.282942 
L 81.239153 271.292594 
L 81.747535 270.844647 
L 82.255916 270.8931 
L 82.764298 270.234986 
L 83.272679 270.648984 
L 83.78106 270.116174 
L 84.289442 270.318208 
L 84.797823 270.386681 
L 85.306204 269.552592 
L 85.814586 270.116593 
L 86.322967 270.509568 
L 87.33973 270.875855 
L 87.848111 271.007286 
L 88.356493 271.40925 
L 88.864874 271.269179 
L 89.373256 271.462346 
L 89.881637 272.01296 
L 90.390018 271.754592 
L 90.8984 271.930418 
L 91.406781 271.972832 
L 92.423544 270.881554 
L 92.931925 271.201238 
L 93.440307 271.909944 
L 94.457069 272.962587 
L 95.473832 274.486793 
L 95.982213 274.042529 
L 96.490595 274.599347 
L 96.998976 274.066275 
L 97.507358 273.958652 
L 98.52412 274.371787 
L 99.032502 274.14338 
L 99.540883 274.047722 
L 100.049265 273.393229 
L 101.066027 273.932584 
L 101.574409 273.92507 
L 102.08279 273.407829 
L 102.591171 273.581281 
L 103.099553 273.242624 
L 103.607934 273.370756 
L 104.116316 272.971943 
L 104.624697 272.373854 
L 105.133078 272.357735 
L 105.64146 272.48104 
L 106.149841 271.828415 
L 106.658222 270.863733 
L 107.166604 271.501854 
L 107.674985 271.683021 
L 108.183367 272.406039 
L 108.691748 272.344181 
L 109.200129 272.118427 
L 109.708511 271.449779 
L 110.216892 271.177867 
L 110.725274 271.054797 
L 112.250418 271.26177 
L 112.758799 271.647126 
L 113.26718 271.4266 
L 113.775562 270.706086 
L 114.283943 270.479398 
L 114.792325 270.663977 
L 115.300706 270.548604 
L 115.809087 270.052448 
L 116.317469 270.226599 
L 116.82585 269.939554 
L 117.334231 269.982902 
L 117.842613 270.566495 
L 118.350994 270.668507 
L 118.859376 270.435405 
L 119.367757 270.038572 
L 119.876138 270.185895 
L 120.892901 269.385755 
L 121.401283 269.460774 
L 121.909664 269.353526 
L 122.418045 269.563545 
L 122.926427 269.438284 
L 123.434808 270.052003 
L 123.943189 270.224557 
L 124.451571 271.028703 
L 124.959952 271.174071 
L 125.468334 271.057834 
L 125.976715 271.082986 
L 126.993478 270.849552 
L 127.501859 271.151083 
L 128.01024 270.955168 
L 129.535385 270.004955 
L 130.043766 270.632961 
L 131.060529 270.687741 
L 131.56891 270.718863 
L 132.077292 271.762621 
L 132.585673 271.585451 
L 133.094054 271.027088 
L 133.602436 270.998306 
L 134.110817 271.165859 
L 134.619198 271.043591 
L 135.12758 271.240301 
L 135.635961 271.735087 
L 136.652724 271.201937 
L 137.161105 271.401649 
L 139.703012 271.069266 
L 140.211394 271.203289 
L 140.719775 270.90407 
L 141.228156 270.989125 
L 141.736538 270.668917 
L 142.7533 271.834507 
L 143.261682 271.11655 
L 143.770063 271.085839 
L 144.786826 271.627377 
L 145.803589 270.899663 
L 146.31197 271.038006 
L 146.820352 270.877042 
L 147.328733 271.52156 
L 148.345496 271.163502 
L 148.853877 270.798454 
L 149.362258 270.271465 
L 149.87064 270.139353 
L 150.379021 269.728706 
L 150.887403 269.996743 
L 151.395784 269.409022 
L 151.904165 269.313869 
L 152.412547 269.021108 
L 152.920928 269.396926 
L 153.429309 268.993574 
L 153.937691 268.909287 
L 154.446072 269.412102 
L 155.462835 269.935147 
L 155.971216 269.460835 
L 156.479598 269.316008 
L 156.987979 270.328576 
L 157.496361 269.67465 
L 158.004742 269.337398 
L 158.513123 270.085053 
L 159.021505 270.404432 
L 159.529886 269.957933 
L 160.038267 270.00924 
L 160.546649 269.740426 
L 161.563412 269.688299 
L 162.580174 269.597319 
L 163.088556 269.369845 
L 163.596937 268.621221 
L 164.105318 268.278873 
L 164.6137 268.751823 
L 165.630463 268.901232 
L 166.138844 269.192291 
L 167.155607 269.170875 
L 167.663988 268.69734 
L 168.17237 267.955706 
L 168.680751 268.079003 
L 169.189132 268.080566 
L 169.697514 267.532326 
L 170.205895 267.765891 
L 170.714276 267.679474 
L 171.222658 267.808113 
L 171.731039 267.546848 
L 172.239421 267.788799 
L 172.747802 267.12674 
L 173.256183 267.21958 
L 173.764565 267.833491 
L 174.272946 267.793957 
L 174.781327 268.223525 
L 175.289709 267.787438 
L 176.814853 269.756711 
L 177.323234 270.025255 
L 177.831616 270.146789 
L 178.339997 269.871901 
L 178.848379 270.734196 
L 179.35676 271.07226 
L 180.373523 271.101478 
L 181.390285 271.46431 
L 181.898667 271.263236 
L 182.407048 270.87123 
L 182.91543 271.107648 
L 183.423811 271.602967 
L 184.440574 270.78319 
L 185.965718 271.454073 
L 186.474099 271.684426 
L 186.982481 272.37326 
L 187.490862 272.254335 
L 187.999243 272.377458 
L 188.507625 272.640224 
L 189.016006 273.321867 
L 189.524388 273.329966 
L 190.54115 272.550744 
L 191.557913 272.514335 
L 193.083057 273.194223 
L 193.591439 274.003274 
L 194.09982 274.56587 
L 195.116583 274.919232 
L 195.624964 274.516247 
L 196.641727 274.462959 
L 197.150108 275.013154 
L 197.65849 275.142473 
L 198.166871 274.670535 
L 198.675252 274.484132 
L 199.692015 274.883294 
L 200.708778 274.872577 
L 201.725541 273.970364 
L 202.233922 273.520889 
L 202.742303 273.450383 
L 203.250685 273.907153 
L 203.759066 274.059172 
L 204.267448 273.97574 
L 204.775829 273.547821 
L 205.28421 273.36367 
L 205.792592 273.31149 
L 206.300973 272.840782 
L 206.809354 272.873064 
L 207.317736 273.367597 
L 207.826117 273.066563 
L 208.334499 273.178122 
L 208.84288 272.666571 
L 209.351261 272.46685 
L 210.368024 272.628678 
L 211.384787 272.318803 
L 211.893168 271.8325 
L 212.40155 271.946363 
L 212.909931 272.408291 
L 213.418312 272.340778 
L 213.926694 272.535123 
L 214.435075 272.36044 
L 214.943457 272.849169 
L 215.451838 273.58623 
L 215.960219 273.878685 
L 216.468601 273.178314 
L 216.976982 273.279793 
L 217.485363 272.849047 
L 217.993745 272.813728 
L 218.502126 272.65588 
L 219.010508 272.904438 
L 220.02727 271.895859 
L 220.535652 271.906157 
L 221.044033 272.536056 
L 221.552415 272.211092 
L 222.569177 272.168862 
L 223.077559 272.017428 
L 223.58594 272.551024 
L 224.094321 272.679461 
L 225.111084 272.445669 
L 225.619466 271.948222 
L 226.127847 272.016581 
L 226.636228 272.431907 
L 227.14461 272.457556 
L 227.652991 271.95015 
L 228.161372 272.212235 
L 228.669754 272.154758 
L 229.686517 271.544992 
L 230.194898 271.952306 
L 230.703279 271.891164 
L 231.211661 271.942104 
L 231.720042 271.831941 
L 232.228424 272.229506 
L 232.736805 271.901357 
L 233.245186 272.033983 
L 233.753568 271.492769 
L 234.261949 271.205864 
L 235.278712 271.51182 
L 235.787093 271.25697 
L 236.295475 271.261316 
L 236.803856 270.812051 
L 237.312237 271.091006 
L 237.820619 270.689373 
L 238.329 270.715302 
L 239.345763 270.290656 
L 239.854144 270.634366 
L 240.362526 270.642919 
L 240.870907 270.264352 
L 241.88767 270.71943 
L 242.396051 270.512125 
L 243.412814 270.57023 
L 243.921195 271.004214 
L 244.429577 270.528349 
L 244.937958 270.23489 
L 245.446339 270.576479 
L 245.954721 270.024146 
L 246.463102 269.306338 
L 246.971484 269.578477 
L 247.479865 269.47417 
L 247.988246 269.234234 
L 248.496628 269.150864 
L 249.005009 269.346012 
L 250.021772 268.980431 
L 250.530153 268.590092 
L 252.055297 269.209196 
L 253.07206 269.93876 
L 253.580442 269.726559 
L 254.088823 269.205216 
L 254.597204 269.645527 
L 255.105586 269.542154 
L 256.63073 268.839636 
L 257.139111 269.067362 
L 258.155874 268.704522 
L 258.664255 268.803523 
L 259.172637 268.602161 
L 259.681018 269.048808 
L 260.189399 269.044829 
L 260.697781 268.754363 
L 261.206162 269.226903 
L 261.714544 269.022321 
L 262.222925 269.604239 
L 262.731306 269.65346 
L 263.748069 269.348019 
L 264.256451 269.882967 
L 264.764832 270.240222 
L 265.273213 270.113853 
L 265.781595 269.617958 
L 266.289976 269.548787 
L 267.81512 270.380249 
L 268.323502 270.545611 
L 268.831883 270.473822 
L 269.340264 269.835552 
L 269.848646 269.835963 
L 270.357027 270.407879 
L 270.865408 270.405121 
L 271.882171 270.74404 
L 272.390553 270.754478 
L 272.898934 271.320783 
L 273.407315 270.880158 
L 273.915697 270.9533 
L 274.424078 270.645982 
L 274.93246 270.98299 
L 275.440841 270.843382 
L 276.457604 271.386717 
L 276.965985 271.253662 
L 277.982748 270.637438 
L 278.491129 270.957681 
L 278.999511 271.012374 
L 279.507892 271.326325 
L 280.524655 271.265165 
L 281.033036 271.47747 
L 281.541417 271.504664 
L 282.049799 271.789501 
L 282.55818 271.707841 
L 283.066562 271.808823 
L 283.574943 272.133752 
L 284.083324 272.137418 
L 284.591706 272.730524 
L 285.100087 272.69229 
L 285.608469 272.789659 
L 286.11685 272.639683 
L 286.625231 272.123917 
L 287.133613 272.35797 
L 287.641994 271.90058 
L 288.658757 271.71114 
L 289.67552 271.038669 
L 290.183901 270.703913 
L 291.200664 270.738062 
L 291.709045 270.934589 
L 292.217426 270.012461 
L 292.725808 269.775841 
L 294.250952 268.600119 
L 295.267715 269.324822 
L 295.776096 268.989036 
L 296.284478 268.897104 
L 296.792859 269.070888 
L 297.809622 268.849096 
L 298.318003 268.398993 
L 298.826384 268.700752 
L 299.334766 268.343436 
L 299.843147 268.3672 
L 300.351529 267.724655 
L 300.85991 267.895821 
L 301.368291 267.669909 
L 301.876673 267.722997 
L 302.385054 267.195327 
L 302.893435 267.673226 
L 303.401817 267.434887 
L 303.910198 266.744744 
L 305.435342 266.734158 
L 305.943724 266.756011 
L 306.452105 266.351926 
L 306.960487 266.602561 
L 307.468868 266.496142 
L 307.977249 266.535484 
L 308.485631 266.38927 
L 308.994012 266.624658 
L 310.010775 266.241362 
L 310.519156 266.434345 
L 311.027538 266.138861 
L 311.535919 266.711851 
L 312.0443 267.07635 
L 312.552682 267.074997 
L 313.061063 267.562592 
L 313.569444 267.688097 
L 314.077826 267.62404 
L 314.586207 267.385012 
L 315.60297 267.297007 
L 316.111351 267.328573 
L 316.619733 267.634669 
L 317.128114 267.444173 
L 317.636496 267.995275 
L 318.144877 267.752835 
L 319.16164 268.80581 
L 319.670021 269.19683 
L 320.178402 268.928941 
L 320.686784 268.424782 
L 321.195165 268.313031 
L 322.720309 268.736856 
L 323.228691 268.48794 
L 323.737072 268.79086 
L 324.245453 268.696938 
L 324.753835 268.926192 
L 325.770598 269.056672 
L 327.804123 269.434845 
L 328.312505 269.289652 
L 328.820886 269.270251 
L 329.329267 269.784822 
L 329.837649 269.441295 
L 330.34603 269.635631 
L 330.854411 269.320136 
L 332.379556 269.701678 
L 332.887937 269.96694 
L 333.9047 269.932476 
L 334.413081 269.503362 
L 335.429844 269.900491 
L 335.938225 269.731045 
L 336.954988 269.84791 
L 337.971751 269.438354 
L 338.480132 269.653268 
L 338.988514 269.481736 
L 339.496895 269.629644 
L 340.005276 270.342801 
L 341.022039 270.824592 
L 341.53042 270.558065 
L 342.547183 270.703756 
L 343.055565 270.504035 
L 343.563946 270.784561 
L 344.072327 270.67246 
L 344.580709 270.679939 
L 345.08909 270.527991 
L 345.597471 270.916297 
L 346.105853 271.088588 
L 346.614234 271.127511 
L 347.122616 271.28666 
L 347.630997 271.603351 
L 348.139378 271.352742 
L 348.64776 272.013047 
L 349.156141 271.461011 
L 349.664523 271.61021 
L 350.172904 271.933717 
L 350.681285 271.749583 
L 351.189667 272.452477 
L 351.698048 272.444901 
L 352.714811 271.980835 
L 353.223192 272.765493 
L 353.731574 272.521709 
L 355.256718 272.515172 
L 355.765099 272.170022 
L 356.781862 272.140708 
L 357.290243 272.31306 
L 357.798625 271.995409 
L 358.307006 271.52958 
L 358.815387 271.827935 
L 359.83215 271.885369 
L 360.340532 271.70552 
L 360.848913 271.825797 
L 361.357294 272.104281 
L 361.865676 272.056019 
L 362.374057 271.832683 
L 363.39082 272.160929 
L 365.424345 271.643339 
L 365.932727 271.30983 
L 366.441108 271.202294 
L 366.949489 271.360945 
L 367.457871 271.179735 
L 367.966252 271.46321 
L 368.474634 271.892089 
L 368.983015 271.883152 
L 373.050066 270.811667 
L 373.558447 271.064885 
L 374.066829 270.701522 
L 375.083592 271.265182 
L 376.100354 271.11244 
L 376.608736 270.644088 
L 377.117117 270.622942 
L 377.625498 270.835003 
L 378.642261 270.828074 
L 379.150643 270.635239 
L 379.659024 270.719264 
L 380.167405 270.249246 
L 381.184168 270.479887 
L 381.692549 270.720809 
L 383.726075 270.458636 
L 385.759601 270.353343 
L 386.267982 270.014459 
L 386.776363 269.921009 
L 387.284745 270.158466 
L 387.793126 270.181759 
L 389.31827 269.852902 
L 390.335033 270.168511 
L 390.843414 269.719097 
L 392.87694 269.552871 
L 393.385321 269.137502 
L 393.893703 268.905535 
L 394.402084 268.540897 
L 396.43561 268.54355 
L 397.452372 268.984917 
L 397.960754 268.776827 
L 398.469135 268.816212 
L 398.977516 268.677285 
L 399.994279 268.833963 
L 401.011042 268.743559 
L 403.552949 269.002764 
L 404.06133 268.634914 
L 404.569712 268.901869 
L 405.078093 268.768038 
L 405.586474 269.040491 
L 406.094856 269.163483 
L 407.111619 269.010426 
L 408.128381 269.07979 
L 408.636763 269.572656 
L 409.653525 269.602834 
L 410.161907 269.550375 
L 412.195432 269.797179 
L 412.703814 269.7356 
L 415.754102 270.467983 
L 416.770865 270.865566 
L 417.787628 270.821145 
L 418.296009 270.900998 
L 418.80439 271.113356 
L 421.854679 271.424409 
L 422.871441 271.042195 
L 423.379823 271.097761 
L 423.888204 270.969079 
L 424.396585 271.006605 
L 424.904967 270.756991 
L 425.413348 270.939337 
L 426.430111 270.728017 
L 427.955255 271.109237 
L 428.972018 270.822262 
L 429.480399 270.709664 
L 431.513925 270.799126 
L 432.022306 270.751022 
L 432.530688 270.550498 
L 433.039069 270.491564 
L 433.54745 270.560814 
L 435.580976 270.062319 
L 437.614501 269.79477 
L 439.139646 269.540278 
L 439.648027 269.333008 
L 440.66479 269.448067 
L 441.681552 269.043808 
L 442.698315 268.851802 
L 443.715078 269.160097 
L 445.240222 269.079685 
L 445.748603 268.894408 
L 446.256985 268.965228 
L 447.273748 268.643109 
L 447.782129 268.794534 
L 448.798892 268.366685 
L 449.307273 268.152442 
L 449.815655 268.289904 
L 450.324036 268.184017 
L 450.832417 267.85942 
L 452.357561 268.147241 
L 453.374324 267.870075 
L 453.882706 268.055728 
L 455.40785 268.223316 
L 456.424612 268.47224 
L 456.932994 268.391645 
L 457.441375 268.574322 
L 459.474901 268.437271 
L 460.491664 268.643231 
L 461.000045 268.915065 
L 465.575477 269.543036 
L 466.59224 269.492724 
L 467.609003 269.786497 
L 469.134147 269.464561 
L 470.659291 269.504113 
L 471.676054 269.735103 
L 474.726342 270.244201 
L 475.234724 270.012103 
L 476.251486 270.300212 
L 479.810156 269.924133 
L 480.318537 270.036504 
L 480.826919 269.908861 
L 481.3353 269.902778 
L 481.843682 269.765133 
L 483.877207 269.973825 
L 484.89397 269.948779 
L 485.910733 270.039209 
L 486.419114 269.9317 
L 486.927495 269.989351 
L 487.435877 269.912482 
L 488.452639 269.955638 
L 489.469402 269.883936 
L 490.486165 269.961005 
L 490.994546 269.930076 
L 491.502928 269.779681 
L 494.044835 269.738707 
L 495.061597 269.59004 
L 498.111886 269.668759 
L 498.620267 269.440553 
L 499.63703 269.642621 
L 500.653793 269.856201 
L 501.670555 269.806936 
L 502.687318 269.708276 
L 503.1957 269.690769 
L 503.704081 269.805234 
L 504.720844 269.754329 
L 505.229225 269.826371 
L 506.245988 269.658697 
L 509.804657 269.372149 
L 511.838183 269.367349 
L 512.346564 269.240535 
L 514.38009 269.190118 
L 517.430378 269.137686 
L 518.447141 269.297925 
L 518.955522 269.185537 
L 524.547718 269.454551 
L 526.072862 269.361528 
L 531.156675 269.281003 
L 536.748871 269.426109 
L 537.765633 269.481291 
L 540.30754 269.465678 
L 542.849447 269.415532 
L 543.86621 269.363344 
L 544.374591 269.469544 
L 545.391354 269.42412 
L 554.033838 269.336071 
L 554.033838 269.336071 
" clip-path="url(#ped5c590ae9)" style="fill: none; stroke: #1f77b4; stroke-opacity: 0.8; stroke-width: 2; stroke-linecap: round"/>
   </g>
   <g id="line2d_24">
    <path d="M 46.160838 175.206837 
L 46.66922 174.377785 
L 48.702745 169.11525 
L 49.211126 167.422648 
L 49.719508 166.678079 
L 50.736271 163.03562 
L 51.244652 162.458809 
L 51.753033 161.42902 
L 52.769796 158.37522 
L 53.278177 157.632882 
L 53.786559 157.177102 
L 54.29494 155.805942 
L 55.311703 154.2537 
L 55.820084 152.928414 
L 57.345229 148.110854 
L 57.85361 147.015273 
L 58.361991 144.571199 
L 58.870373 142.801018 
L 59.378754 141.706134 
L 59.887135 139.115548 
L 60.395517 137.910542 
L 61.41228 136.152409 
L 61.920661 135.0213 
L 63.445805 130.455241 
L 64.462568 128.555484 
L 64.970949 126.260622 
L 65.987712 123.368884 
L 67.512856 118.847263 
L 68.529619 116.680765 
L 70.054763 112.950654 
L 70.563144 111.186272 
L 71.071526 110.193314 
L 71.579907 110.31333 
L 72.088289 109.749673 
L 73.105051 110.289627 
L 73.613433 110.000077 
L 74.121814 109.933773 
L 74.630195 110.35824 
L 75.138577 109.349835 
L 75.646958 110.337766 
L 76.15534 110.628712 
L 76.663721 109.959108 
L 78.188865 110.239616 
L 79.205628 108.937053 
L 79.714009 108.85298 
L 80.222391 108.304492 
L 80.730772 107.580531 
L 81.239153 107.05979 
L 81.747535 107.741111 
L 82.255916 107.880919 
L 82.764298 108.833584 
L 83.272679 108.38047 
L 83.78106 109.828213 
L 84.289442 110.169938 
L 84.797823 110.096059 
L 85.306204 111.212165 
L 85.814586 110.782584 
L 86.322967 110.176104 
L 86.831349 109.783705 
L 87.33973 109.707177 
L 87.848111 110.011794 
L 88.356493 109.671195 
L 88.864874 109.803974 
L 89.373256 109.226725 
L 89.881637 108.41321 
L 90.390018 109.452536 
L 90.8984 109.171482 
L 91.406781 109.221161 
L 91.915162 109.52666 
L 92.423544 110.070549 
L 92.931925 110.067163 
L 93.948688 108.895595 
L 94.457069 108.911382 
L 95.473832 107.284942 
L 95.982213 107.973379 
L 96.490595 107.696406 
L 97.507358 107.945252 
L 98.52412 107.567034 
L 99.540883 108.331485 
L 100.049265 108.495603 
L 100.557646 108.317081 
L 101.574409 107.574483 
L 102.08279 107.826685 
L 102.591171 107.241136 
L 103.607934 106.392543 
L 104.116316 106.387634 
L 104.624697 106.550003 
L 105.64146 107.190868 
L 106.149841 107.883599 
L 106.658222 109.17582 
L 107.166604 108.261096 
L 107.674985 108.128771 
L 108.183367 107.404277 
L 108.691748 107.457487 
L 109.200129 106.879108 
L 109.708511 106.931536 
L 110.725274 107.460205 
L 111.233655 107.344235 
L 111.742036 107.368243 
L 112.758799 107.105961 
L 113.26718 107.230686 
L 113.775562 108.172489 
L 114.792325 107.901747 
L 115.300706 108.075304 
L 115.809087 108.075548 
L 116.317469 107.6334 
L 117.334231 108.429932 
L 118.350994 107.272759 
L 118.859376 107.225057 
L 119.367757 107.604561 
L 119.876138 106.742065 
L 120.892901 107.901332 
L 121.401283 107.646417 
L 121.909664 107.653826 
L 122.418045 107.501371 
L 122.926427 107.783162 
L 123.434808 107.024585 
L 123.943189 106.70247 
L 124.451571 105.756722 
L 124.959952 105.427176 
L 125.976715 105.700951 
L 126.485096 106.018846 
L 126.993478 106.1409 
L 127.501859 106.043191 
L 128.01024 106.339713 
L 128.518622 106.939604 
L 129.535385 107.670918 
L 130.043766 106.999639 
L 130.552147 106.559122 
L 131.060529 105.887306 
L 131.56891 105.605803 
L 132.077292 104.300094 
L 133.094054 104.813657 
L 133.602436 104.658602 
L 134.619198 104.786707 
L 135.12758 104.438337 
L 135.635961 103.514092 
L 136.144343 103.722292 
L 136.652724 104.129985 
L 137.161105 104.195569 
L 137.669487 104.627638 
L 138.177868 104.580428 
L 138.686249 104.247854 
L 139.703012 104.388749 
L 140.211394 104.235941 
L 140.719775 104.561351 
L 141.228156 104.323134 
L 141.736538 104.938621 
L 142.7533 103.263728 
L 143.261682 104.035854 
L 143.770063 104.359404 
L 144.786826 103.849573 
L 145.803589 104.772901 
L 146.31197 104.618352 
L 146.820352 104.790648 
L 147.328733 104.195002 
L 148.853877 104.285245 
L 149.362258 104.73177 
L 150.379021 105.240882 
L 150.887403 104.999423 
L 151.395784 105.463708 
L 151.904165 105.200676 
L 152.412547 105.5435 
L 152.920928 104.706989 
L 153.429309 104.823549 
L 153.937691 104.77877 
L 154.446072 104.311348 
L 154.954454 104.130631 
L 155.462835 104.101739 
L 156.479598 104.977871 
L 156.987979 104.075671 
L 157.496361 104.955787 
L 158.004742 105.396565 
L 159.021505 104.796268 
L 159.529886 105.540171 
L 160.038267 105.704106 
L 160.546649 106.386595 
L 161.05503 106.529982 
L 162.071793 106.056046 
L 162.580174 106.251176 
L 163.088556 105.841345 
L 163.596937 106.230772 
L 164.105318 107.151042 
L 164.6137 106.299751 
L 165.630463 106.129842 
L 166.138844 105.642976 
L 167.155607 105.655775 
L 167.663988 106.064659 
L 168.17237 106.720797 
L 169.189132 106.416076 
L 169.697514 107.016809 
L 170.714276 107.016395 
L 171.222658 106.937497 
L 171.731039 107.36974 
L 172.239421 106.881486 
L 172.747802 107.694905 
L 173.256183 107.383982 
L 173.764565 106.674046 
L 174.272946 106.856827 
L 174.781327 106.298983 
L 175.289709 106.968727 
L 175.79809 106.473884 
L 176.814853 104.879988 
L 177.323234 104.592733 
L 177.831616 104.612147 
L 178.339997 105.261059 
L 179.35676 104.511981 
L 179.865141 104.587645 
L 180.373523 104.275728 
L 180.881904 104.17661 
L 181.390285 103.934872 
L 181.898667 104.317767 
L 182.407048 105.135767 
L 183.423811 104.550908 
L 183.932192 104.619604 
L 184.440574 105.398743 
L 185.965718 103.727646 
L 186.474099 103.470212 
L 186.982481 102.968444 
L 187.490862 103.337664 
L 187.999243 102.742673 
L 188.507625 102.720166 
L 189.016006 102.265752 
L 189.524388 102.028382 
L 190.54115 102.939549 
L 191.557913 103.703301 
L 192.066294 103.475544 
L 192.574676 103.094901 
L 193.083057 103.035146 
L 194.09982 101.666283 
L 194.608201 101.477419 
L 195.116583 101.524397 
L 195.624964 102.00988 
L 196.133345 101.937759 
L 196.641727 102.444204 
L 197.150108 101.684602 
L 197.65849 101.580609 
L 198.675252 101.889794 
L 199.183634 102.326859 
L 199.692015 102.14166 
L 200.200397 102.231297 
L 200.708778 101.929145 
L 201.217159 102.648062 
L 202.233922 103.500033 
L 202.742303 103.626882 
L 203.250685 103.474453 
L 203.759066 103.104361 
L 204.267448 103.174658 
L 204.775829 103.758535 
L 205.28421 103.623801 
L 205.792592 103.910436 
L 206.300973 104.34366 
L 206.809354 104.519251 
L 207.317736 104.003991 
L 207.826117 103.822824 
L 208.334499 103.445121 
L 208.84288 104.008747 
L 209.351261 104.137704 
L 209.859643 103.476618 
L 210.368024 103.334522 
L 210.876406 103.599941 
L 211.384787 103.99107 
L 211.893168 104.927437 
L 212.40155 104.913208 
L 212.909931 104.26728 
L 213.418312 104.567215 
L 214.435075 104.574764 
L 214.943457 103.616278 
L 215.960219 102.898496 
L 216.468601 103.483058 
L 216.976982 102.935927 
L 217.485363 103.160416 
L 218.502126 102.967921 
L 219.010508 102.990899 
L 220.02727 104.328501 
L 220.535652 104.459077 
L 221.044033 103.416758 
L 221.552415 103.865273 
L 222.060796 103.164517 
L 222.569177 103.018442 
L 223.077559 103.313368 
L 223.58594 102.716666 
L 224.094321 102.876478 
L 224.602703 102.564281 
L 225.111084 102.833051 
L 225.619466 103.284228 
L 226.127847 103.137236 
L 226.636228 102.82415 
L 227.14461 102.94009 
L 227.652991 103.930866 
L 228.161372 103.41263 
L 228.669754 103.106517 
L 229.686517 103.579703 
L 230.194898 102.984651 
L 230.703279 103.239806 
L 231.211661 103.247225 
L 231.720042 103.438122 
L 232.228424 102.968252 
L 232.736805 102.881601 
L 233.245186 102.556872 
L 233.753568 103.155171 
L 234.77033 102.854407 
L 235.278712 103.008327 
L 236.803856 103.905496 
L 237.312237 103.575147 
L 237.820619 103.723326 
L 238.837381 103.766499 
L 239.345763 103.922231 
L 239.854144 103.427833 
L 240.870907 103.886659 
L 241.379288 103.641823 
L 241.88767 103.262785 
L 242.904433 103.94976 
L 243.412814 103.959408 
L 243.921195 103.714607 
L 244.937958 104.165718 
L 245.446339 103.385681 
L 245.954721 103.443856 
L 246.463102 103.989678 
L 246.971484 103.328666 
L 247.479865 103.810763 
L 248.496628 104.276309 
L 249.005009 103.94654 
L 249.51339 103.773821 
L 250.021772 103.933157 
L 250.530153 104.416052 
L 251.038535 104.288666 
L 252.563679 103.124242 
L 253.07206 102.342114 
L 254.088823 103.15346 
L 254.597204 102.605011 
L 255.613967 102.82881 
L 256.122348 103.091925 
L 256.63073 102.993753 
L 257.139111 102.408484 
L 258.155874 102.730071 
L 258.664255 102.786152 
L 259.172637 102.688259 
L 259.681018 102.372441 
L 260.189399 102.334626 
L 260.697781 102.464713 
L 261.714544 101.734329 
L 262.222925 101.092909 
L 262.731306 100.826827 
L 263.239688 101.062617 
L 263.748069 101.074966 
L 264.256451 100.535724 
L 264.764832 100.231103 
L 265.273213 100.484714 
L 265.781595 100.873282 
L 266.798357 100.471091 
L 267.81512 99.626948 
L 268.323502 99.426198 
L 268.831883 99.545533 
L 269.340264 100.05094 
L 269.848646 99.825805 
L 270.357027 99.328681 
L 270.865408 99.571828 
L 271.882171 99.172377 
L 272.390553 99.241741 
L 272.898934 98.32491 
L 273.407315 98.72443 
L 273.915697 98.315362 
L 274.424078 98.579585 
L 274.93246 98.419407 
L 275.440841 98.935871 
L 275.949222 98.876378 
L 276.457604 98.513154 
L 277.474366 98.94493 
L 277.982748 99.427088 
L 279.507892 98.938289 
L 280.016273 99.369262 
L 280.524655 98.932293 
L 281.541417 99.235108 
L 282.049799 98.883517 
L 282.55818 99.001814 
L 284.083324 98.413002 
L 284.591706 97.819782 
L 285.100087 97.843136 
L 285.608469 97.982308 
L 286.11685 98.573215 
L 287.133613 99.014713 
L 287.641994 99.799179 
L 289.167138 100.768207 
L 289.67552 101.282254 
L 290.183901 101.502431 
L 290.692282 101.478248 
L 291.709045 101.171148 
L 292.217426 102.002794 
L 292.725808 102.327016 
L 293.234189 102.880536 
L 293.742571 103.091131 
L 294.250952 103.58267 
L 294.759333 103.064757 
L 295.267715 103.147464 
L 296.284478 102.883896 
L 297.809622 103.342202 
L 298.318003 104.120664 
L 298.826384 103.754569 
L 299.334766 104.061411 
L 299.843147 104.143883 
L 300.351529 104.786507 
L 300.85991 104.45546 
L 301.876673 104.546331 
L 302.385054 104.876453 
L 303.401817 104.514804 
L 303.910198 104.988034 
L 304.41858 105.096988 
L 304.926961 104.981262 
L 305.435342 104.630552 
L 306.452105 105.279202 
L 306.960487 104.802669 
L 307.977249 105.115019 
L 308.485631 105.178779 
L 308.994012 105.128105 
L 309.502393 105.542313 
L 310.010775 105.741545 
L 310.519156 105.597019 
L 311.027538 105.697796 
L 311.535919 104.698834 
L 312.0443 104.332101 
L 312.552682 104.165212 
L 313.061063 103.638445 
L 314.077826 103.271591 
L 314.586207 103.705518 
L 315.094589 103.993082 
L 316.619733 103.259547 
L 317.128114 103.448761 
L 317.636496 102.83395 
L 318.144877 103.060027 
L 318.653258 102.420449 
L 319.16164 102.27728 
L 319.670021 101.774526 
L 320.178402 102.12987 
L 321.703547 102.723796 
L 322.720309 102.649362 
L 323.228691 103.067463 
L 323.737072 102.393613 
L 324.245453 102.57382 
L 326.278979 101.787032 
L 326.78736 101.434097 
L 328.312505 101.388891 
L 328.820886 101.852137 
L 329.329267 101.564534 
L 329.837649 101.823424 
L 330.854411 102.128726 
L 331.362793 101.977773 
L 331.871174 101.52973 
L 332.379556 101.829237 
L 332.887937 101.443043 
L 333.396318 101.382328 
L 333.9047 101.514344 
L 334.413081 102.034098 
L 334.921462 101.678301 
L 336.446607 101.736677 
L 336.954988 101.806625 
L 337.463369 102.232527 
L 337.971751 102.385916 
L 338.480132 101.875691 
L 338.988514 101.948074 
L 339.496895 101.583271 
L 340.005276 100.56277 
L 340.513658 99.933743 
L 341.022039 99.859195 
L 341.53042 100.418109 
L 342.038802 100.564201 
L 342.547183 100.522599 
L 343.055565 100.864529 
L 344.072327 100.980923 
L 344.580709 100.697116 
L 345.08909 100.971951 
L 345.597471 100.493755 
L 346.614234 100.193358 
L 347.630997 99.770781 
L 348.139378 100.027359 
L 348.64776 99.319631 
L 349.156141 99.983182 
L 350.172904 99.717248 
L 350.681285 100.212968 
L 351.189667 99.639629 
L 351.698048 99.685246 
L 352.206429 99.89009 
L 352.714811 100.307387 
L 353.223192 99.584456 
L 353.731574 99.783479 
L 354.239955 99.379289 
L 354.748336 99.157175 
L 355.765099 99.708329 
L 356.27348 99.888824 
L 356.781862 99.823763 
L 357.798625 99.990391 
L 358.307006 100.610254 
L 358.815387 100.2194 
L 359.323769 100.134214 
L 359.83215 99.817392 
L 360.340532 99.886267 
L 360.848913 99.746249 
L 361.357294 99.46101 
L 362.882438 99.54747 
L 363.39082 99.268088 
L 363.899201 99.570013 
L 364.915964 99.854509 
L 365.424345 100.141859 
L 365.932727 100.730619 
L 366.441108 100.703844 
L 366.949489 100.261666 
L 367.457871 100.081267 
L 368.983015 99.045162 
L 369.999778 99.402669 
L 370.508159 99.276117 
L 371.01654 99.953833 
L 371.524922 99.963773 
L 372.033303 100.089042 
L 373.050066 99.590216 
L 373.558447 99.182108 
L 374.066829 99.487925 
L 375.083592 99.098057 
L 375.591973 99.14425 
L 376.100354 98.818884 
L 376.608736 99.292323 
L 377.117117 99.339921 
L 377.625498 98.825202 
L 378.13388 98.736814 
L 379.150643 99.122545 
L 379.659024 99.106444 
L 380.167405 99.351546 
L 380.675787 99.008429 
L 382.200931 98.559295 
L 382.709312 98.508145 
L 383.217694 98.319569 
L 384.234456 98.792572 
L 384.742838 98.632786 
L 385.251219 98.958937 
L 385.759601 99.082025 
L 386.267982 99.433563 
L 386.776363 99.395391 
L 388.301507 98.683936 
L 388.809889 98.724744 
L 389.31827 98.980275 
L 389.826652 98.534483 
L 390.335033 98.475104 
L 390.843414 98.963475 
L 391.860177 98.614119 
L 392.87694 98.926167 
L 393.893703 99.974769 
L 394.402084 100.405009 
L 395.418847 100.478055 
L 395.927228 100.505328 
L 396.43561 100.341344 
L 397.452372 100.406597 
L 397.960754 100.813806 
L 398.469135 100.704804 
L 398.977516 100.751302 
L 401.011042 100.402958 
L 401.519423 100.675778 
L 402.536186 100.21933 
L 403.044567 100.280726 
L 403.552949 100.148553 
L 404.06133 100.410298 
L 404.569712 100.061238 
L 405.078093 100.035999 
L 405.586474 100.158694 
L 407.62 99.92341 
L 408.128381 100.01186 
L 409.145144 99.192825 
L 409.653525 99.098249 
L 410.161907 99.28782 
L 410.670288 99.031739 
L 411.17867 99.064073 
L 411.687051 98.804432 
L 412.195432 99.14754 
L 414.737339 98.955638 
L 415.754102 98.625054 
L 416.770865 97.84674 
L 417.787628 98.077687 
L 418.296009 97.890193 
L 419.312772 97.144213 
L 419.821153 96.917831 
L 420.329534 96.837279 
L 420.837916 96.926488 
L 421.346297 96.787412 
L 421.854679 96.472266 
L 422.36306 96.70392 
L 423.379823 96.821116 
L 424.396585 97.131978 
L 424.904967 97.155096 
L 425.413348 97.050038 
L 425.92173 97.199473 
L 426.430111 97.178877 
L 426.938492 96.77399 
L 427.446874 96.632479 
L 427.955255 96.644348 
L 428.463637 96.833657 
L 428.972018 96.859568 
L 429.480399 96.76357 
L 430.497162 96.947137 
L 431.513925 96.334499 
L 432.530688 96.821326 
L 433.54745 96.757914 
L 434.055832 96.910561 
L 435.072594 96.975997 
L 436.089357 97.153839 
L 436.597739 97.022024 
L 439.139646 97.147634 
L 440.156408 96.998827 
L 440.66479 97.131672 
L 441.173171 97.064473 
L 441.681552 97.434949 
L 442.189934 97.629495 
L 442.698315 97.668828 
L 443.715078 97.374383 
L 444.731841 97.36439 
L 445.240222 97.219118 
L 445.748603 97.473995 
L 446.256985 97.16624 
L 446.765366 97.340862 
L 447.273748 97.673916 
L 447.782129 97.48712 
L 448.29051 97.65456 
L 448.798892 97.698178 
L 449.307273 97.972734 
L 449.815655 97.856262 
L 450.832417 98.374654 
L 451.340799 98.334405 
L 451.84918 98.499165 
L 452.357561 98.300133 
L 452.865943 98.511435 
L 453.374324 98.534658 
L 453.882706 98.268174 
L 454.391087 98.293754 
L 454.899468 98.459325 
L 456.424612 98.204798 
L 456.932994 98.307298 
L 457.441375 97.996236 
L 457.949757 97.886868 
L 458.458138 97.895342 
L 458.966519 97.659831 
L 459.983282 97.73258 
L 460.491664 97.668689 
L 461.000045 97.318084 
L 461.508426 97.132519 
L 462.016808 97.091222 
L 462.525189 97.194578 
L 463.03357 96.95205 
L 463.541952 96.951465 
L 464.050333 97.090602 
L 466.083859 96.893831 
L 466.59224 96.966965 
L 467.609003 96.554642 
L 469.134147 96.924332 
L 470.659291 96.960672 
L 471.167673 96.651434 
L 472.184435 96.594542 
L 473.201198 96.29582 
L 473.709579 96.224965 
L 474.726342 95.865607 
L 475.234724 95.91927 
L 477.268249 95.252193 
L 478.285012 95.56027 
L 479.301775 95.762164 
L 479.810156 95.593564 
L 480.318537 95.297975 
L 481.3353 94.991443 
L 481.843682 95.069655 
L 483.368826 94.993581 
L 484.89397 95.056312 
L 485.402351 94.868093 
L 487.435877 94.782227 
L 487.944258 94.534297 
L 491.502928 94.523632 
L 496.07836 94.912069 
L 496.586742 94.896168 
L 497.095123 95.039259 
L 498.620267 95.124444 
L 500.145411 94.535021 
L 500.653793 94.594375 
L 501.162174 94.495295 
L 501.670555 94.583291 
L 502.178937 94.804629 
L 502.687318 94.823192 
L 504.212462 94.535309 
L 505.229225 94.588877 
L 505.737606 94.885574 
L 507.262751 95.3024 
L 509.296276 95.195693 
L 510.82142 95.284265 
L 512.346564 95.541454 
L 517.430378 95.500803 
L 518.447141 95.312 
L 518.955522 95.502479 
L 524.039336 94.986407 
L 526.581243 95.186948 
L 527.089624 95.310481 
L 527.598006 95.152537 
L 528.614769 95.267858 
L 530.139913 95.343985 
L 530.648294 95.355635 
L 531.665057 95.185491 
L 533.190201 95.12845 
L 543.86621 95.456556 
L 544.374591 95.295418 
L 545.391354 95.274578 
L 547.42488 95.28176 
L 550.983549 95.357966 
L 554.033838 95.252795 
L 554.033838 95.252795 
" clip-path="url(#ped5c590ae9)" style="fill: none; stroke: #ff7f0e; stroke-opacity: 0.8; stroke-width: 2; stroke-linecap: round"/>
   </g>
   <g id="line2d_25">
    <path d="M 46.160838 175.206837 
L 46.66922 174.377785 
L 48.702745 169.11525 
L 49.211126 167.422648 
L 49.719508 166.678079 
L 50.736271 163.03562 
L 51.244652 162.458809 
L 51.753033 161.42902 
L 52.769796 158.37522 
L 53.278177 157.632882 
L 53.786559 157.177102 
L 54.29494 155.805942 
L 55.311703 154.2537 
L 55.820084 152.928414 
L 57.345229 148.110854 
L 57.85361 147.015273 
L 58.361991 144.571199 
L 58.870373 142.801018 
L 59.378754 141.706134 
L 59.887135 139.115548 
L 60.395517 137.910542 
L 61.41228 136.152409 
L 61.920661 135.0213 
L 63.445805 130.455241 
L 64.462568 128.555484 
L 64.970949 126.260622 
L 65.987712 123.368884 
L 67.512856 118.847263 
L 68.529619 116.680765 
L 70.054763 112.950654 
L 70.563144 111.186272 
L 71.071526 110.193314 
L 71.579907 110.31333 
L 72.088289 109.749673 
L 73.105051 110.289627 
L 73.613433 110.000077 
L 74.121814 109.933773 
L 74.630195 110.35824 
L 75.138577 109.349835 
L 75.646958 110.337766 
L 76.15534 110.628712 
L 76.663721 109.959108 
L 78.188865 110.239616 
L 79.205628 108.937053 
L 79.714009 108.85298 
L 80.222391 108.304492 
L 80.730772 107.580531 
L 81.239153 107.05979 
L 81.747535 107.741111 
L 82.255916 107.880919 
L 82.764298 108.833584 
L 83.272679 108.38047 
L 83.78106 109.828213 
L 84.289442 110.169938 
L 84.797823 110.096059 
L 85.306204 111.212165 
L 85.814586 110.782584 
L 86.322967 110.176104 
L 86.831349 109.783705 
L 87.33973 109.707177 
L 87.848111 110.011794 
L 88.356493 109.671195 
L 88.864874 109.803974 
L 89.373256 109.226725 
L 89.881637 108.41321 
L 90.390018 109.452536 
L 90.8984 109.171482 
L 91.406781 109.221161 
L 91.915162 109.52666 
L 92.423544 110.070549 
L 92.931925 110.067163 
L 93.948688 108.895595 
L 94.457069 108.911382 
L 95.473832 107.284942 
L 95.982213 107.973379 
L 96.490595 107.696406 
L 97.507358 107.945252 
L 98.52412 107.567034 
L 99.540883 108.331485 
L 100.049265 108.495603 
L 100.557646 108.317081 
L 101.574409 107.574483 
L 102.08279 107.826685 
L 102.591171 107.241136 
L 103.607934 106.392543 
L 104.116316 106.387634 
L 104.624697 106.550003 
L 105.64146 107.190868 
L 106.149841 107.883599 
L 106.658222 109.17582 
L 107.166604 108.261096 
L 107.674985 108.128771 
L 108.183367 107.404277 
L 108.691748 107.457487 
L 109.200129 106.879108 
L 109.708511 106.931536 
L 110.725274 107.460205 
L 111.233655 107.344235 
L 111.742036 107.368243 
L 112.758799 107.105961 
L 113.26718 107.230686 
L 113.775562 108.172489 
L 114.792325 107.901747 
L 115.300706 108.075304 
L 115.809087 108.075548 
L 116.317469 107.6334 
L 117.334231 108.429932 
L 118.350994 107.272759 
L 118.859376 107.225057 
L 119.367757 107.604561 
L 119.876138 106.742065 
L 120.892901 107.901332 
L 121.401283 107.646417 
L 121.909664 107.653826 
L 122.418045 107.501371 
L 122.926427 107.783162 
L 123.434808 107.024585 
L 123.943189 106.70247 
L 124.451571 105.756722 
L 124.959952 105.427176 
L 125.976715 105.700951 
L 126.485096 106.018846 
L 126.993478 106.1409 
L 127.501859 106.043191 
L 128.01024 106.339713 
L 128.518622 106.939604 
L 129.535385 107.670918 
L 130.043766 106.999639 
L 130.552147 106.559122 
L 131.060529 105.887306 
L 131.56891 105.605803 
L 132.077292 104.300094 
L 133.094054 104.813657 
L 133.602436 104.658602 
L 134.619198 104.786707 
L 135.12758 104.438337 
L 135.635961 103.514092 
L 136.144343 103.722292 
L 136.652724 104.129985 
L 137.161105 104.195569 
L 137.669487 104.627638 
L 138.177868 104.580428 
L 138.686249 104.247854 
L 139.703012 104.388749 
L 140.211394 104.235941 
L 140.719775 104.561351 
L 141.228156 104.323134 
L 141.736538 104.938621 
L 142.7533 103.263728 
L 143.261682 104.035854 
L 143.770063 104.359404 
L 144.786826 103.849573 
L 145.803589 104.772901 
L 146.31197 104.618352 
L 146.820352 104.790648 
L 147.328733 104.195002 
L 148.853877 104.285245 
L 149.362258 104.73177 
L 150.379021 105.240882 
L 150.887403 104.999423 
L 151.395784 105.463708 
L 151.904165 105.200676 
L 152.412547 105.5435 
L 152.920928 104.706989 
L 153.429309 104.823549 
L 153.937691 104.77877 
L 154.446072 104.311348 
L 154.954454 104.130631 
L 155.462835 104.101739 
L 156.479598 104.977871 
L 156.987979 104.075671 
L 157.496361 104.955787 
L 158.004742 105.396565 
L 159.021505 104.796268 
L 159.529886 105.540171 
L 160.038267 105.704106 
L 160.546649 106.386595 
L 161.05503 106.529982 
L 162.071793 106.056046 
L 162.580174 106.251176 
L 163.088556 105.841345 
L 163.596937 106.230772 
L 164.105318 107.151042 
L 164.6137 106.299751 
L 165.630463 106.129842 
L 166.138844 105.642976 
L 167.155607 105.655775 
L 167.663988 106.064659 
L 168.17237 106.720797 
L 169.189132 106.416076 
L 169.697514 107.016809 
L 170.714276 107.016395 
L 171.222658 106.937497 
L 171.731039 107.36974 
L 172.239421 106.881486 
L 172.747802 107.694905 
L 173.256183 107.383982 
L 173.764565 106.674046 
L 174.272946 106.856827 
L 174.781327 106.298983 
L 175.289709 106.968727 
L 175.79809 106.473884 
L 176.814853 104.879988 
L 177.323234 104.592733 
L 177.831616 104.612147 
L 178.339997 105.261059 
L 179.35676 104.511981 
L 179.865141 104.587645 
L 180.373523 104.275728 
L 180.881904 104.17661 
L 181.390285 103.934872 
L 181.898667 104.317767 
L 182.407048 105.135767 
L 183.423811 104.550908 
L 183.932192 104.619604 
L 184.440574 105.398743 
L 185.965718 103.727646 
L 186.474099 103.470212 
L 186.982481 102.968444 
L 187.490862 103.337664 
L 187.999243 102.742673 
L 188.507625 102.720166 
L 189.016006 102.265752 
L 189.524388 102.028382 
L 190.54115 102.939549 
L 191.557913 103.703301 
L 192.066294 103.475544 
L 192.574676 103.094901 
L 193.083057 103.035146 
L 194.09982 101.666283 
L 194.608201 101.477419 
L 195.116583 101.524397 
L 195.624964 102.00988 
L 196.133345 101.937759 
L 196.641727 102.444204 
L 197.150108 101.684602 
L 197.65849 101.580609 
L 198.675252 101.889794 
L 199.183634 102.326859 
L 199.692015 102.14166 
L 200.200397 102.231297 
L 200.708778 101.929145 
L 201.217159 102.648062 
L 202.233922 103.500033 
L 202.742303 103.626882 
L 203.250685 103.474453 
L 203.759066 103.104361 
L 204.267448 103.174658 
L 204.775829 103.758535 
L 205.28421 103.623801 
L 205.792592 103.910436 
L 206.300973 104.34366 
L 206.809354 104.519251 
L 207.317736 104.003991 
L 207.826117 103.822824 
L 208.334499 103.445121 
L 208.84288 104.008747 
L 209.351261 104.137704 
L 209.859643 103.476618 
L 210.368024 103.334522 
L 210.876406 103.599941 
L 211.384787 103.99107 
L 211.893168 104.927437 
L 212.40155 104.913208 
L 212.909931 104.26728 
L 213.418312 104.567215 
L 214.435075 104.574764 
L 214.943457 103.616278 
L 215.960219 102.898496 
L 216.468601 103.483058 
L 216.976982 102.935927 
L 217.485363 103.160416 
L 218.502126 102.967921 
L 219.010508 102.990899 
L 220.02727 104.328501 
L 220.535652 104.459077 
L 221.044033 103.416758 
L 221.552415 103.865273 
L 222.060796 103.164517 
L 222.569177 103.018442 
L 223.077559 103.313368 
L 223.58594 102.716666 
L 224.094321 102.876478 
L 224.602703 102.564281 
L 225.111084 102.833051 
L 225.619466 103.284228 
L 226.127847 103.137236 
L 226.636228 102.82415 
L 227.14461 102.94009 
L 227.652991 103.930866 
L 228.161372 103.41263 
L 228.669754 103.106517 
L 229.686517 103.579703 
L 230.194898 102.984651 
L 230.703279 103.239806 
L 231.211661 103.247225 
L 231.720042 103.438122 
L 232.228424 102.968252 
L 232.736805 102.881601 
L 233.245186 102.556872 
L 233.753568 103.155171 
L 234.77033 102.854407 
L 235.278712 103.008327 
L 236.803856 103.905496 
L 237.312237 103.575147 
L 237.820619 103.723326 
L 238.837381 103.766499 
L 239.345763 103.922231 
L 239.854144 103.427833 
L 240.870907 103.886659 
L 241.379288 103.641823 
L 241.88767 103.262785 
L 242.904433 103.94976 
L 243.412814 103.959408 
L 243.921195 103.714607 
L 244.937958 104.165718 
L 245.446339 103.385681 
L 245.954721 103.443856 
L 246.463102 103.989678 
L 246.971484 103.328666 
L 247.479865 103.810763 
L 248.496628 104.276309 
L 249.005009 103.94654 
L 249.51339 103.773821 
L 250.021772 103.933157 
L 250.530153 104.416052 
L 251.038535 104.288666 
L 252.563679 103.124242 
L 253.07206 102.342114 
L 254.088823 103.15346 
L 254.597204 102.605011 
L 255.613967 102.82881 
L 256.122348 103.091925 
L 256.63073 102.993753 
L 257.139111 102.408484 
L 258.155874 102.730071 
L 258.664255 102.786152 
L 259.172637 102.688259 
L 259.681018 102.372441 
L 260.189399 102.334626 
L 260.697781 102.464713 
L 261.714544 101.734329 
L 262.222925 101.092909 
L 262.731306 100.826827 
L 263.239688 101.062617 
L 263.748069 101.074966 
L 264.256451 100.535724 
L 264.764832 100.231103 
L 265.273213 100.484714 
L 265.781595 100.873282 
L 266.798357 100.471091 
L 267.81512 99.626948 
L 268.323502 99.426198 
L 268.831883 99.545533 
L 269.340264 100.05094 
L 269.848646 99.825805 
L 270.357027 99.328681 
L 270.865408 99.571828 
L 271.882171 99.172377 
L 272.390553 99.241741 
L 272.898934 98.32491 
L 273.407315 98.72443 
L 273.915697 98.315362 
L 274.424078 98.579585 
L 274.93246 98.419407 
L 275.440841 98.935871 
L 275.949222 98.876378 
L 276.457604 98.513154 
L 277.474366 98.94493 
L 277.982748 99.427088 
L 279.507892 98.938289 
L 280.016273 99.369262 
L 280.524655 98.932293 
L 281.541417 99.235108 
L 282.049799 98.883517 
L 282.55818 99.001814 
L 284.083324 98.413002 
L 284.591706 97.819782 
L 285.100087 97.843136 
L 285.608469 97.982308 
L 286.11685 98.573215 
L 287.133613 99.014713 
L 287.641994 99.799179 
L 289.167138 100.768207 
L 289.67552 101.282254 
L 290.183901 101.502431 
L 290.692282 101.478248 
L 291.709045 101.171148 
L 292.217426 102.002794 
L 292.725808 102.327016 
L 293.234189 102.880536 
L 293.742571 103.091131 
L 294.250952 103.58267 
L 294.759333 103.064757 
L 295.267715 103.147464 
L 296.284478 102.883896 
L 297.809622 103.342202 
L 298.318003 104.120664 
L 298.826384 103.754569 
L 299.334766 104.061411 
L 299.843147 104.143883 
L 300.351529 104.786507 
L 300.85991 104.45546 
L 301.876673 104.546331 
L 302.385054 104.876453 
L 303.401817 104.514804 
L 303.910198 104.988034 
L 304.41858 105.096988 
L 304.926961 104.981262 
L 305.435342 104.630552 
L 306.452105 105.279202 
L 306.960487 104.802669 
L 307.977249 105.115019 
L 308.485631 105.178779 
L 308.994012 105.128105 
L 309.502393 105.542313 
L 310.010775 105.741545 
L 310.519156 105.597019 
L 311.027538 105.697796 
L 311.535919 104.698834 
L 312.0443 104.332101 
L 312.552682 104.165212 
L 313.061063 103.638445 
L 314.077826 103.271591 
L 314.586207 103.705518 
L 315.094589 103.993082 
L 316.619733 103.259547 
L 317.128114 103.448761 
L 317.636496 102.83395 
L 318.144877 103.060027 
L 318.653258 102.420449 
L 319.16164 102.27728 
L 319.670021 101.774526 
L 320.178402 102.12987 
L 321.703547 102.723796 
L 322.720309 102.649362 
L 323.228691 103.067463 
L 323.737072 102.393613 
L 324.245453 102.57382 
L 326.278979 101.787032 
L 326.78736 101.434097 
L 328.312505 101.388891 
L 328.820886 101.852137 
L 329.329267 101.564534 
L 329.837649 101.823424 
L 330.854411 102.128726 
L 331.362793 101.977773 
L 331.871174 101.52973 
L 332.379556 101.829237 
L 332.887937 101.443043 
L 333.396318 101.382328 
L 333.9047 101.514344 
L 334.413081 102.034098 
L 334.921462 101.678301 
L 336.446607 101.736677 
L 336.954988 101.806625 
L 337.463369 102.232527 
L 337.971751 102.385916 
L 338.480132 101.875691 
L 338.988514 101.948074 
L 339.496895 101.583271 
L 340.005276 100.56277 
L 340.513658 99.933743 
L 341.022039 99.859195 
L 341.53042 100.418109 
L 342.038802 100.564201 
L 342.547183 100.522599 
L 343.055565 100.864529 
L 344.072327 100.980923 
L 344.580709 100.697116 
L 345.08909 100.971951 
L 345.597471 100.493755 
L 346.614234 100.193358 
L 347.630997 99.770781 
L 348.139378 100.027359 
L 348.64776 99.319631 
L 349.156141 99.983182 
L 350.172904 99.717248 
L 350.681285 100.212968 
L 351.189667 99.639629 
L 351.698048 99.685246 
L 352.206429 99.89009 
L 352.714811 100.307387 
L 353.223192 99.584456 
L 353.731574 99.783479 
L 354.239955 99.379289 
L 354.748336 99.157175 
L 355.765099 99.708329 
L 356.27348 99.888824 
L 356.781862 99.823763 
L 357.798625 99.990391 
L 358.307006 100.610254 
L 358.815387 100.2194 
L 359.323769 100.134214 
L 359.83215 99.817392 
L 360.340532 99.886267 
L 360.848913 99.746249 
L 361.357294 99.46101 
L 362.882438 99.54747 
L 363.39082 99.268088 
L 363.899201 99.570013 
L 364.915964 99.854509 
L 365.424345 100.141859 
L 365.932727 100.730619 
L 366.441108 100.703844 
L 366.949489 100.261666 
L 367.457871 100.081267 
L 368.983015 99.045162 
L 369.999778 99.402669 
L 370.508159 99.276117 
L 371.01654 99.953833 
L 371.524922 99.963773 
L 372.033303 100.089042 
L 373.050066 99.590216 
L 373.558447 99.182108 
L 374.066829 99.487925 
L 375.083592 99.098057 
L 375.591973 99.14425 
L 376.100354 98.818884 
L 376.608736 99.292323 
L 377.117117 99.339921 
L 377.625498 98.825202 
L 378.13388 98.736814 
L 379.150643 99.122545 
L 379.659024 99.106444 
L 380.167405 99.351546 
L 380.675787 99.008429 
L 382.200931 98.559295 
L 382.709312 98.508145 
L 383.217694 98.319569 
L 384.234456 98.792572 
L 384.742838 98.632786 
L 385.251219 98.958937 
L 385.759601 99.082025 
L 386.267982 99.433563 
L 386.776363 99.395391 
L 388.301507 98.683936 
L 388.809889 98.724744 
L 389.31827 98.980275 
L 389.826652 98.534483 
L 390.335033 98.475104 
L 390.843414 98.963475 
L 391.860177 98.614119 
L 392.87694 98.926167 
L 393.893703 99.974769 
L 394.402084 100.405009 
L 395.418847 100.478055 
L 395.927228 100.505328 
L 396.43561 100.341344 
L 397.452372 100.406597 
L 397.960754 100.813806 
L 398.469135 100.704804 
L 398.977516 100.751302 
L 401.011042 100.402958 
L 401.519423 100.675778 
L 402.536186 100.21933 
L 403.044567 100.280726 
L 403.552949 100.148553 
L 404.06133 100.410298 
L 404.569712 100.061238 
L 405.078093 100.035999 
L 405.586474 100.158694 
L 407.62 99.92341 
L 408.128381 100.01186 
L 409.145144 99.192825 
L 409.653525 99.098249 
L 410.161907 99.28782 
L 410.670288 99.031739 
L 411.17867 99.064073 
L 411.687051 98.804432 
L 412.195432 99.14754 
L 414.737339 98.955638 
L 415.754102 98.625054 
L 416.770865 97.84674 
L 417.787628 98.077687 
L 418.296009 97.890193 
L 419.312772 97.144213 
L 419.821153 96.917831 
L 420.329534 96.837279 
L 420.837916 96.926488 
L 421.346297 96.787412 
L 421.854679 96.472266 
L 422.36306 96.70392 
L 423.379823 96.821116 
L 424.396585 97.131978 
L 424.904967 97.155096 
L 425.413348 97.050038 
L 425.92173 97.199473 
L 426.430111 97.178877 
L 426.938492 96.77399 
L 427.446874 96.632479 
L 427.955255 96.644348 
L 428.463637 96.833657 
L 428.972018 96.859568 
L 429.480399 96.76357 
L 430.497162 96.947137 
L 431.513925 96.334499 
L 432.530688 96.821326 
L 433.54745 96.757914 
L 434.055832 96.910561 
L 435.072594 96.975997 
L 436.089357 97.153839 
L 436.597739 97.022024 
L 439.139646 97.147634 
L 440.156408 96.998827 
L 440.66479 97.131672 
L 441.173171 97.064473 
L 441.681552 97.434949 
L 442.189934 97.629495 
L 442.698315 97.668828 
L 443.715078 97.374383 
L 444.731841 97.36439 
L 445.240222 97.219118 
L 445.748603 97.473995 
L 446.256985 97.16624 
L 446.765366 97.340862 
L 447.273748 97.673916 
L 447.782129 97.48712 
L 448.29051 97.65456 
L 448.798892 97.698178 
L 449.307273 97.972734 
L 449.815655 97.856262 
L 450.832417 98.374654 
L 451.340799 98.334405 
L 451.84918 98.499165 
L 452.357561 98.300133 
L 452.865943 98.511435 
L 453.374324 98.534658 
L 453.882706 98.268174 
L 454.391087 98.293754 
L 454.899468 98.459325 
L 456.424612 98.204798 
L 456.932994 98.307298 
L 457.441375 97.996236 
L 457.949757 97.886868 
L 458.458138 97.895342 
L 458.966519 97.659831 
L 459.983282 97.73258 
L 460.491664 97.668689 
L 461.000045 97.318084 
L 461.508426 97.132519 
L 462.016808 97.091222 
L 462.525189 97.194578 
L 463.03357 96.95205 
L 463.541952 96.951465 
L 464.050333 97.090602 
L 466.083859 96.893831 
L 466.59224 96.966965 
L 467.609003 96.554642 
L 469.134147 96.924332 
L 470.659291 96.960672 
L 471.167673 96.651434 
L 472.184435 96.594542 
L 473.201198 96.29582 
L 473.709579 96.224965 
L 474.726342 95.865607 
L 475.234724 95.91927 
L 477.268249 95.252193 
L 478.285012 95.56027 
L 479.301775 95.762164 
L 479.810156 95.593564 
L 480.318537 95.297975 
L 481.3353 94.991443 
L 481.843682 95.069655 
L 483.368826 94.993581 
L 484.89397 95.056312 
L 485.402351 94.868093 
L 487.435877 94.782227 
L 487.944258 94.534297 
L 491.502928 94.523632 
L 496.07836 94.912069 
L 496.586742 94.896168 
L 497.095123 95.039259 
L 498.620267 95.124444 
L 500.145411 94.535021 
L 500.653793 94.594375 
L 501.162174 94.495295 
L 501.670555 94.583291 
L 502.178937 94.804629 
L 502.687318 94.823192 
L 504.212462 94.535309 
L 505.229225 94.588877 
L 505.737606 94.885574 
L 507.262751 95.3024 
L 509.296276 95.195693 
L 510.82142 95.284265 
L 512.346564 95.541454 
L 517.430378 95.500803 
L 518.447141 95.312 
L 518.955522 95.502479 
L 524.039336 94.986407 
L 526.581243 95.186948 
L 527.089624 95.310481 
L 527.598006 95.152537 
L 528.614769 95.267858 
L 530.139913 95.343985 
L 530.648294 95.355635 
L 531.665057 95.185491 
L 533.190201 95.12845 
L 543.86621 95.456556 
L 544.374591 95.295418 
L 545.391354 95.274578 
L 547.42488 95.28176 
L 550.983549 95.357966 
L 554.033838 95.252795 
L 554.033838 95.252795 
" clip-path="url(#ped5c590ae9)" style="fill: none; stroke: #2ca02c; stroke-opacity: 0.8; stroke-width: 2; stroke-linecap: round"/>
   </g>
   <g id="patch_3">
    <path d="M 46.11 320.82 
L 46.11 40.88 
" style="fill: none; stroke: #cccccc; stroke-linejoin: miter; stroke-linecap: square"/>
   </g>
   <g id="patch_4">
    <path d="M 554.084676 320.82 
L 554.084676 40.88 
" style="fill: none; stroke: #cccccc; stroke-linejoin: miter; stroke-linecap: square"/>
   </g>
   <g id="patch_5">
    <path d="M 46.11 320.82 
L 554.084676 320.82 
" style="fill: none; stroke: #cccccc; stroke-linejoin: miter; stroke-linecap: square"/>
   </g>
   <g id="patch_6">
    <path d="M 46.11 40.88 
L 554.084676 40.88 
" style="fill: none; stroke: #cccccc; stroke-linejoin: miter; stroke-linecap: square"/>
   </g>
   <g id="text_14">
    <!-- Reward Trends by Agent -->
    <g style="fill: #262626" transform="translate(223.44515 20.88) scale(0.14 -0.14)">
     <defs>
      <path id="ArialMT-20" transform="scale(0.015625)"/>
      <path id="ArialMT-54" d="M 1659 0 
L 1659 4041 
L 150 4041 
L 150 4581 
L 3781 4581 
L 3781 4041 
L 2266 4041 
L 2266 0 
L 1659 0 
z
" transform="scale(0.015625)"/>
      <path id="ArialMT-6e" d="M 422 0 
L 422 3319 
L 928 3319 
L 928 2847 
Q 1294 3394 1984 3394 
Q 2284 3394 2536 3286 
Q 2788 3178 2913 3003 
Q 3038 2828 3088 2588 
Q 3119 2431 3119 2041 
L 3119 0 
L 2556 0 
L 2556 2019 
Q 2556 2363 2490 2533 
Q 2425 2703 2258 2804 
Q 2091 2906 1866 2906 
Q 1506 2906 1245 2678 
Q 984 2450 984 1813 
L 984 0 
L 422 0 
z
" transform="scale(0.015625)"/>
      <path id="ArialMT-62" d="M 941 0 
L 419 0 
L 419 4581 
L 981 4581 
L 981 2947 
Q 1338 3394 1891 3394 
Q 2197 3394 2470 3270 
Q 2744 3147 2920 2923 
Q 3097 2700 3197 2384 
Q 3297 2069 3297 1709 
Q 3297 856 2875 390 
Q 2453 -75 1863 -75 
Q 1275 -75 941 416 
L 941 0 
z
M 934 1684 
Q 934 1088 1097 822 
Q 1363 388 1816 388 
Q 2184 388 2453 708 
Q 2722 1028 2722 1663 
Q 2722 2313 2464 2622 
Q 2206 2931 1841 2931 
Q 1472 2931 1203 2611 
Q 934 2291 934 1684 
z
" transform="scale(0.015625)"/>
      <path id="ArialMT-79" d="M 397 -1278 
L 334 -750 
Q 519 -800 656 -800 
Q 844 -800 956 -737 
Q 1069 -675 1141 -563 
Q 1194 -478 1313 -144 
Q 1328 -97 1363 -6 
L 103 3319 
L 709 3319 
L 1400 1397 
Q 1534 1031 1641 628 
Q 1738 1016 1872 1384 
L 2581 3319 
L 3144 3319 
L 1881 -56 
Q 1678 -603 1566 -809 
Q 1416 -1088 1222 -1217 
Q 1028 -1347 759 -1347 
Q 597 -1347 397 -1278 
z
" transform="scale(0.015625)"/>
      <path id="ArialMT-41" d="M -9 0 
L 1750 4581 
L 2403 4581 
L 4278 0 
L 3588 0 
L 3053 1388 
L 1138 1388 
L 634 0 
L -9 0 
z
M 1313 1881 
L 2866 1881 
L 2388 3150 
Q 2169 3728 2063 4100 
Q 1975 3659 1816 3225 
L 1313 1881 
z
" transform="scale(0.015625)"/>
      <path id="ArialMT-67" d="M 319 -275 
L 866 -356 
Q 900 -609 1056 -725 
Q 1266 -881 1628 -881 
Q 2019 -881 2231 -725 
Q 2444 -569 2519 -288 
Q 2563 -116 2559 434 
Q 2191 0 1641 0 
Q 956 0 581 494 
Q 206 988 206 1678 
Q 206 2153 378 2554 
Q 550 2956 876 3175 
Q 1203 3394 1644 3394 
Q 2231 3394 2613 2919 
L 2613 3319 
L 3131 3319 
L 3131 450 
Q 3131 -325 2973 -648 
Q 2816 -972 2473 -1159 
Q 2131 -1347 1631 -1347 
Q 1038 -1347 672 -1080 
Q 306 -813 319 -275 
z
M 784 1719 
Q 784 1066 1043 766 
Q 1303 466 1694 466 
Q 2081 466 2343 764 
Q 2606 1063 2606 1700 
Q 2606 2309 2336 2618 
Q 2066 2928 1684 2928 
Q 1309 2928 1046 2623 
Q 784 2319 784 1719 
z
" transform="scale(0.015625)"/>
      <path id="ArialMT-74" d="M 1650 503 
L 1731 6 
Q 1494 -44 1306 -44 
Q 1000 -44 831 53 
Q 663 150 594 308 
Q 525 466 525 972 
L 525 2881 
L 113 2881 
L 113 3319 
L 525 3319 
L 525 4141 
L 1084 4478 
L 1084 3319 
L 1650 3319 
L 1650 2881 
L 1084 2881 
L 1084 941 
Q 1084 700 1114 631 
Q 1144 563 1211 522 
Q 1278 481 1403 481 
Q 1497 481 1650 503 
z
" transform="scale(0.015625)"/>
     </defs>
     <use xlink:href="#ArialMT-52"/>
     <use xlink:href="#ArialMT-65" transform="translate(72.216797 0)"/>
     <use xlink:href="#ArialMT-77" transform="translate(127.832031 0)"/>
     <use xlink:href="#ArialMT-61" transform="translate(200.048828 0)"/>
     <use xlink:href="#ArialMT-72" transform="translate(255.664062 0)"/>
     <use xlink:href="#ArialMT-64" transform="translate(288.964844 0)"/>
     <use xlink:href="#ArialMT-20" transform="translate(344.580078 0)"/>
     <use xlink:href="#ArialMT-54" transform="translate(370.613281 0)"/>
     <use xlink:href="#ArialMT-72" transform="translate(427.947266 0)"/>
     <use xlink:href="#ArialMT-65" transform="translate(461.248047 0)"/>
     <use xlink:href="#ArialMT-6e" transform="translate(516.863281 0)"/>
     <use xlink:href="#ArialMT-64" transform="translate(572.478516 0)"/>
     <use xlink:href="#ArialMT-73" transform="translate(628.09375 0)"/>
     <use xlink:href="#ArialMT-20" transform="translate(678.09375 0)"/>
     <use xlink:href="#ArialMT-62" transform="translate(705.876953 0)"/>
     <use xlink:href="#ArialMT-79" transform="translate(761.492188 0)"/>
     <use xlink:href="#ArialMT-20" transform="translate(811.492188 0)"/>
     <use xlink:href="#ArialMT-41" transform="translate(833.775391 0)"/>
     <use xlink:href="#ArialMT-67" transform="translate(900.474609 0)"/>
     <use xlink:href="#ArialMT-65" transform="translate(956.089844 0)"/>
     <use xlink:href="#ArialMT-6e" transform="translate(1011.705078 0)"/>
     <use xlink:href="#ArialMT-74" transform="translate(1067.320312 0)"/>
    </g>
   </g>
   <g id="legend_1">
    <g id="line2d_26">
     <path d="M 55.11 53.5675 
L 65.11 53.5675 
L 75.11 53.5675 
" style="fill: none; stroke: #1f77b4; stroke-opacity: 0.8; stroke-width: 2; stroke-linecap: round"/>
    </g>
    <g id="text_15">
     <!-- adversary_0 -->
     <g style="fill: #262626" transform="translate(83.11 57.0675) scale(0.1 -0.1)">
      <defs>
       <path id="ArialMT-76" d="M 1344 0 
L 81 3319 
L 675 3319 
L 1388 1331 
Q 1503 1009 1600 663 
Q 1675 925 1809 1294 
L 2547 3319 
L 3125 3319 
L 1869 0 
L 1344 0 
z
" transform="scale(0.015625)"/>
       <path id="ArialMT-5f" d="M -97 -1272 
L -97 -866 
L 3631 -866 
L 3631 -1272 
L -97 -1272 
z
" transform="scale(0.015625)"/>
      </defs>
      <use xlink:href="#ArialMT-61"/>
      <use xlink:href="#ArialMT-64" transform="translate(55.615234 0)"/>
      <use xlink:href="#ArialMT-76" transform="translate(111.230469 0)"/>
      <use xlink:href="#ArialMT-65" transform="translate(161.230469 0)"/>
      <use xlink:href="#ArialMT-72" transform="translate(216.845703 0)"/>
      <use xlink:href="#ArialMT-73" transform="translate(250.146484 0)"/>
      <use xlink:href="#ArialMT-61" transform="translate(300.146484 0)"/>
      <use xlink:href="#ArialMT-72" transform="translate(355.761719 0)"/>
      <use xlink:href="#ArialMT-79" transform="translate(389.0625 0)"/>
      <use xlink:href="#ArialMT-5f" transform="translate(439.0625 0)"/>
      <use xlink:href="#ArialMT-30" transform="translate(494.677734 0)"/>
     </g>
    </g>
    <g id="line2d_27">
     <path d="M 55.11 67.859688 
L 65.11 67.859688 
L 75.11 67.859688 
" style="fill: none; stroke: #ff7f0e; stroke-opacity: 0.8; stroke-width: 2; stroke-linecap: round"/>
    </g>
    <g id="text_16">
     <!-- agent_0 -->
     <g style="fill: #262626" transform="translate(83.11 71.359688) scale(0.1 -0.1)">
      <use xlink:href="#ArialMT-61"/>
      <use xlink:href="#ArialMT-67" transform="translate(55.615234 0)"/>
      <use xlink:href="#ArialMT-65" transform="translate(111.230469 0)"/>
      <use xlink:href="#ArialMT-6e" transform="translate(166.845703 0)"/>
      <use xlink:href="#ArialMT-74" transform="translate(222.460938 0)"/>
      <use xlink:href="#ArialMT-5f" transform="translate(250.244141 0)"/>
      <use xlink:href="#ArialMT-30" transform="translate(305.859375 0)"/>
     </g>
    </g>
    <g id="line2d_28">
     <path d="M 55.11 82.151875 
L 65.11 82.151875 
L 75.11 82.151875 
" style="fill: none; stroke: #2ca02c; stroke-opacity: 0.8; stroke-width: 2; stroke-linecap: round"/>
    </g>
    <g id="text_17">
     <!-- agent_1 -->
     <g style="fill: #262626" transform="translate(83.11 85.651875) scale(0.1 -0.1)">
      <use xlink:href="#ArialMT-61"/>
      <use xlink:href="#ArialMT-67" transform="translate(55.615234 0)"/>
      <use xlink:href="#ArialMT-65" transform="translate(111.230469 0)"/>
      <use xlink:href="#ArialMT-6e" transform="translate(166.845703 0)"/>
      <use xlink:href="#ArialMT-74" transform="translate(222.460938 0)"/>
      <use xlink:href="#ArialMT-5f" transform="translate(250.244141 0)"/>
      <use xlink:href="#ArialMT-31" transform="translate(305.859375 0)"/>
     </g>
    </g>
   </g>
  </g>
 </g>
 <defs>
  <clipPath id="ped5c590ae9">
   <rect x="46.11" y="40.88" width="507.974676" height="279.94"/>
  </clipPath>
 </defs>
</svg>
